TiroDevaMarathi-Italic.ufo
<glyph name="dI" format="2">
  <advance width="528"/>
  <unicode hex="0907"/>
  <outline>
    <contour>
      <point x="220" y="20" type="curve" smooth="yes"/>
      <point x="331" y="20"/>
      <point x="462" y="79"/>
      <point x="462" y="177" type="curve" smooth="yes"/>
      <point x="462" y="239"/>
      <point x="422" y="319"/>
      <point x="351" y="319" type="curve" smooth="yes"/>
      <point x="315" y="319"/>
      <point x="223" y="291"/>
      <point x="177" y="291" type="curve" smooth="yes"/>
      <point x="145" y="291"/>
      <point x="132" y="314"/>
      <point x="132" y="337" type="curve" smooth="yes"/>
      <point x="132" y="372"/>
      <point x="158" y="395"/>
      <point x="246" y="395" type="curve" smooth="yes"/>
      <point x="450" y="395" type="line"/>
      <point x="464" y="403" type="line"/>
      <point x="473" y="452"/>
      <point x="485" y="515"/>
      <point x="494" y="570" type="curve"/>
      <point x="415" y="570" type="line"/>
      <point x="396" y="469" type="line"/>
      <point x="222" y="469" type="line" smooth="yes"/>
      <point x="129" y="469"/>
      <point x="71" y="443"/>
      <point x="71" y="371" type="curve" smooth="yes"/>
      <point x="71" y="298"/>
      <point x="120" y="220"/>
      <point x="208" y="220" type="curve" smooth="yes"/>
      <point x="250" y="220"/>
      <point x="329" y="247"/>
      <point x="364" y="247" type="curve" smooth="yes"/>
      <point x="384" y="247"/>
      <point x="403" y="240"/>
      <point x="403" y="213" type="curve" smooth="yes"/>
      <point x="403" y="141"/>
      <point x="301" y="96"/>
      <point x="209" y="91" type="curve"/>
      <point x="172" y="151"/>
      <point x="133" y="177"/>
      <point x="104" y="177" type="curve" smooth="yes"/>
      <point x="82" y="177"/>
      <point x="63" y="151"/>
      <point x="63" y="120" type="curve" smooth="yes"/>
      <point x="63" y="64"/>
      <point x="142" y="20"/>
    </contour>
    <contour>
      <point x="258" y="-155" type="line"/>
      <point x="314" y="-124" type="line"/>
      <point x="232" y="33" type="line"/>
      <point x="182" y="34" type="line"/>
      <point x="249" y="-155" type="line"/>
    </contour>
    <contour>
      <point x="613" y="545" type="line"/>
      <point x="615" y="555" type="line"/>
      <point x="584" y="620" type="line"/>
      <point x="34" y="620" type="line"/>
      <point x="32" y="610" type="line"/>
      <point x="63" y="545" type="line"/>
    </contour>
  </outline>
</glyph>
<glyph name="dUu" format="2">
  <advance width="760"/>
  <unicode hex="090A"/>
  <outline>
    <contour>
      <point x="627" y="38" type="line"/>
      <point x="694" y="114"/>
      <point x="729" y="177"/>
      <point x="729" y="248" type="curve" smooth="yes"/>
      <point x="729" y="333"/>
      <point x="671" y="390"/>
      <point x="604" y="390" type="curve" smooth="yes"/>
      <point x="548" y="390"/>
      <point x="492" y="353"/>
      <point x="451" y="320" type="curve"/>
      <point x="492" y="249" type="line"/>
      <point x="525" y="278"/>
      <point x="575" y="318"/>
      <point x="626" y="318" type="curve" smooth="yes"/>
      <point x="651" y="318"/>
      <point x="673" y="306"/>
      <point x="673" y="276" type="curve" smooth="yes"/>
      <point x="673" y="224"/>
      <point x="615" y="156"/>
      <point x="556" y="95" type="curve"/>
      <point x="621" y="38" type="line"/>
    </contour>
    <contour>
      <point x="845" y="545" type="line"/>
      <point x="847" y="555" type="line"/>
      <point x="816" y="620" type="line"/>
      <point x="34" y="620" type="line"/>
      <point x="32" y="610" type="line"/>
      <point x="63" y="545" type="line"/>
    </contour>
    <contour>
      <point x="414" y="565" type="line"/>
      <point x="422" y="538"/>
      <point x="427" y="512"/>
      <point x="427" y="492" type="curve" smooth="yes"/>
      <point x="427" y="425"/>
      <point x="396" y="392"/>
      <point x="206" y="362" type="curve"/>
      <point x="205" y="356" type="line"/>
      <point x="233" y="286" type="line"/>
      <point x="306" y="294"/>
      <point x="344" y="316"/>
      <point x="374" y="316" type="curve"/>
      <point x="443" y="343"/>
      <point x="492" y="396"/>
      <point x="492" y="465" type="curve" smooth="yes"/>
      <point x="492" y="502"/>
      <point x="479" y="536"/>
      <point x="466" y="566" type="curve"/>
    </contour>
    <contour>
      <point x="374" y="316" type="line"/>
      <point x="417" y="316"/>
      <point x="442" y="278"/>
      <point x="442" y="227" type="curve" smooth="yes"/>
      <point x="442" y="139"/>
      <point x="372" y="95"/>
      <point x="292" y="95" type="curve" smooth="yes"/>
      <point x="159" y="95"/>
      <point x="112" y="221"/>
      <point x="81" y="317" type="curve"/>
      <point x="43" y="297" type="line"/>
      <point x="87" y="154"/>
      <point x="154" y="21"/>
      <point x="310" y="21" type="curve" smooth="yes"/>
      <point x="439" y="21"/>
      <point x="510" y="98"/>
      <point x="510" y="189" type="curve" smooth="yes"/>
      <point x="510" y="263"/>
      <point x="479" y="335"/>
      <point x="407" y="366" type="curve"/>
    </contour>
  </outline>
</glyph>
<glyph name="dVocalicL" format="2">
  <advance width="682"/>
  <unicode hex="090C"/>
  <outline>
    <contour>
      <point x="505" y="-87" type="curve" smooth="yes"/>
      <point x="568" y="-87"/>
      <point x="636" y="-52"/>
      <point x="680" y="-7" type="curve"/>
      <point x="623" y="51" type="line"/>
      <point x="576" y="-3"/>
      <point x="526" y="-32"/>
      <point x="486" y="-32" type="curve" smooth="yes"/>
      <point x="458" y="-32"/>
      <point x="445" y="-16"/>
      <point x="445" y="5" type="curve" smooth="yes"/>
      <point x="445" y="84"/>
      <point x="624" y="121"/>
      <point x="624" y="279" type="curve" smooth="yes"/>
      <point x="624" y="364"/>
      <point x="572" y="443"/>
      <point x="495" y="443" type="curve" smooth="yes"/>
      <point x="413" y="443"/>
      <point x="321" y="361"/>
      <point x="265" y="261" type="curve"/>
      <point x="335" y="222" type="line"/>
      <point x="402" y="325"/>
      <point x="466" y="371"/>
      <point x="514" y="371" type="curve" smooth="yes"/>
      <point x="548" y="371"/>
      <point x="567" y="348"/>
      <point x="567" y="313" type="curve" smooth="yes"/>
      <point x="567" y="204"/>
      <point x="378" y="145"/>
      <point x="378" y="32" type="curve" smooth="yes"/>
      <point x="378" y="-22"/>
      <point x="421" y="-87"/>
    </contour>
    <contour>
      <point x="203" y="-10" type="line"/>
      <point x="249" y="22" type="line"/>
      <point x="164" y="113"/>
      <point x="128" y="160"/>
      <point x="128" y="238" type="curve" smooth="yes"/>
      <point x="128" y="325"/>
      <point x="185" y="380"/>
      <point x="244" y="380" type="curve" smooth="yes"/>
      <point x="288" y="380"/>
      <point x="313" y="358"/>
      <point x="328" y="332" type="curve"/>
      <point x="355" y="362" type="line"/>
      <point x="323" y="412"/>
      <point x="278" y="454"/>
      <point x="216" y="454" type="curve" smooth="yes"/>
      <point x="118" y="454"/>
      <point x="55" y="373"/>
      <point x="55" y="274" type="curve" smooth="yes"/>
      <point x="55" y="177"/>
      <point x="112" y="94"/>
      <point x="193" y="-10" type="curve"/>
    </contour>
    <contour>
      <point x="767" y="545" type="line"/>
      <point x="769" y="555" type="line"/>
      <point x="738" y="620" type="line"/>
      <point x="34" y="620" type="line"/>
      <point x="32" y="610" type="line"/>
      <point x="63" y="545" type="line"/>
    </contour>
    <contour>
      <point x="544" y="399" type="line"/>
      <point x="576" y="571" type="line"/>
      <point x="495" y="571" type="line"/>
      <point x="463" y="399" type="line"/>
    </contour>
  </outline>
</glyph>
<glyph name="dGa" format="2">
  <advance width="583"/>
  <unicode hex="0917"/>
  <outline>
    <contour>
      <point x="207" y="581" type="line"/>
      <point x="161" y="347" type="line"/>
      <point x="99" y="347" type="line" smooth="yes"/>
      <point x="74" y="347"/>
      <point x="67" y="333"/>
      <point x="67" y="318" type="curve" smooth="yes"/>
      <point x="67" y="262"/>
      <point x="147" y="170"/>
      <point x="186" y="170" type="curve" smooth="yes"/>
      <point x="203" y="170"/>
      <point x="212" y="178"/>
      <point x="217" y="202" type="curve" smooth="yes"/>
      <point x="289" y="581" type="line"/>
    </contour>
    <contour>
      <point x="668" y="545" type="line"/>
      <point x="670" y="555" type="line"/>
      <point x="639" y="620" type="line"/>
      <point x="34" y="620" type="line"/>
      <point x="32" y="610" type="line"/>
      <point x="63" y="545" type="line"/>
    </contour>
    <contour>
      <point x="475" y="581" type="line"/>
      <point x="368" y="51" type="line"/>
      <point x="435" y="-10" type="line"/>
      <point x="445" y="-10" type="line"/>
      <point x="558" y="581" type="line"/>
    </contour>
  </outline>
</glyph>
<glyph name="dNga" format="2">
  <advance width="653"/>
  <unicode hex="0919"/>
  <outline>
    <contour>
      <point x="317" y="7" type="curve" smooth="yes"/>
      <point x="449" y="7"/>
      <point x="516" y="77"/>
      <point x="516" y="157" type="curve" smooth="yes"/>
      <point x="516" y="227"/>
      <point x="462" y="298"/>
      <point x="411" y="298" type="curve" smooth="yes"/>
      <point x="373" y="298"/>
      <point x="265" y="273"/>
      <point x="242" y="273" type="curve" smooth="yes"/>
      <point x="221" y="273"/>
      <point x="200" y="293"/>
      <point x="200" y="326" type="curve" smooth="yes"/>
      <point x="200" y="366"/>
      <point x="227" y="385"/>
      <point x="283" y="385" type="curve" smooth="yes"/>
      <point x="479" y="385" type="line"/>
      <point x="493" y="393" type="line"/>
      <point x="503" y="445"/>
      <point x="518" y="527"/>
      <point x="528" y="581" type="curve"/>
      <point x="447" y="581" type="line"/>
      <point x="423" y="460" type="line"/>
      <point x="269" y="460" type="line" smooth="yes"/>
      <point x="177" y="460"/>
      <point x="135" y="419"/>
      <point x="135" y="359" type="curve" smooth="yes"/>
      <point x="135" y="280"/>
      <point x="201" y="199"/>
      <point x="261" y="199" type="curve" smooth="yes"/>
      <point x="295" y="199"/>
      <point x="385" y="223"/>
      <point x="424" y="223" type="curve" smooth="yes"/>
      <point x="445" y="223"/>
      <point x="456" y="210"/>
      <point x="456" y="194" type="curve" smooth="yes"/>
      <point x="456" y="160"/>
      <point x="426" y="82"/>
      <point x="295" y="82" type="curve" smooth="yes"/>
      <point x="163" y="82"/>
      <point x="103" y="175"/>
      <point x="69" y="281" type="curve"/>
      <point x="30" y="260" type="line"/>
      <point x="75" y="97"/>
      <point x="184" y="7"/>
    </contour>
    <contour>
      <point x="738" y="545" type="line"/>
      <point x="740" y="555" type="line"/>
      <point x="708" y="620" type="line"/>
      <point x="33" y="620" type="line"/>
      <point x="31" y="610" type="line"/>
      <point x="63" y="545" type="line"/>
    </contour>
    <contour>
      <point x="664" y="341" type="line"/>
      <point x="603" y="411" type="line"/>
      <point x="525" y="343" type="line"/>
      <point x="586" y="273" type="line"/>
    </contour>
  </outline>
</glyph>
<glyph name="dPa" format="2">
  <advance width="557"/>
  <unicode hex="092A"/>
  <outline>
    <contour>
      <point x="419" y="-10" type="line"/>
      <point x="533" y="582" type="line"/>
      <point x="449" y="582" type="line"/>
      <point x="342" y="52" type="line"/>
      <point x="409" y="-10" type="line"/>
    </contour>
    <contour>
      <point x="642" y="545" type="line"/>
      <point x="644" y="555" type="line"/>
      <point x="613" y="620" type="line"/>
      <point x="34" y="620" type="line"/>
      <point x="32" y="610" type="line"/>
      <point x="63" y="545" type="line"/>
    </contour>
    <contour>
      <point x="270" y="168" type="curve" smooth="yes"/>
      <point x="314" y="168"/>
      <point x="337" y="180"/>
      <point x="390" y="211" type="curve"/>
      <point x="415" y="323" type="line"/>
      <point x="342" y="267"/>
      <point x="271" y="233"/>
      <point x="229" y="233" type="curve" smooth="yes"/>
      <point x="199" y="233"/>
      <point x="172" y="253"/>
      <point x="172" y="299" type="curve" smooth="yes"/>
      <point x="172" y="307"/>
      <point x="173" y="315"/>
      <point x="175" y="325" type="curve" smooth="yes"/>
      <point x="223" y="582" type="line"/>
      <point x="139" y="582" type="line"/>
      <point x="126" y="519"/>
      <point x="111" y="449"/>
      <point x="101" y="396" type="curve" smooth="yes"/>
      <point x="95" y="364"/>
      <point x="92" y="350"/>
      <point x="92" y="342" type="curve" smooth="yes"/>
      <point x="92" y="274"/>
      <point x="174" y="168"/>
    </contour>
  </outline>
</glyph>
<glyph name="dBa" format="2">
  <advance width="602"/>
  <unicode hex="092C"/>
  <outline>
    <contour>
      <point x="245" y="128" type="curve" smooth="yes"/>
      <point x="358" y="128"/>
      <point x="452" y="190"/>
      <point x="452" y="303" type="curve" smooth="yes"/>
      <point x="452" y="403"/>
      <point x="358" y="467"/>
      <point x="258" y="467" type="curve" smooth="yes"/>
      <point x="139" y="467"/>
      <point x="52" y="397"/>
      <point x="52" y="298" type="curve" smooth="yes"/>
      <point x="52" y="211"/>
      <point x="131" y="128"/>
    </contour>
    <contour>
      <point x="220" y="192" type="curve" smooth="yes"/>
      <point x="158" y="192"/>
      <point x="117" y="223"/>
      <point x="117" y="271" type="curve" smooth="yes"/>
      <point x="117" y="343"/>
      <point x="206" y="394"/>
      <point x="291" y="394" type="curve" smooth="yes"/>
      <point x="351" y="394"/>
      <point x="398" y="374"/>
      <point x="398" y="323" type="curve" smooth="yes"/>
      <point x="398" y="254"/>
      <point x="308" y="192"/>
    </contour>
    <contour>
      <point x="339" y="202" type="line"/>
      <point x="212" y="412" type="line"/>
      <point x="171" y="397" type="line"/>
      <point x="306" y="173" type="line"/>
    </contour>
    <contour>
      <point x="464" y="-10" type="line"/>
      <point x="577" y="581" type="line"/>
      <point x="493" y="581" type="line"/>
      <point x="448" y="352" type="line"/>
      <point x="422" y="352" type="line"/>
      <point x="391" y="192" type="line"/>
      <point x="415" y="192" type="line"/>
      <point x="387" y="52" type="line"/>
      <point x="454" y="-10" type="line"/>
    </contour>
    <contour>
      <point x="687" y="545" type="line"/>
      <point x="689" y="555" type="line"/>
      <point x="658" y="620" type="line"/>
      <point x="34" y="620" type="line"/>
      <point x="32" y="610" type="line"/>
      <point x="63" y="545" type="line"/>
    </contour>
  </outline>
</glyph>
<glyph name="dBha" format="2">
  <advance width="716"/>
  <unicode hex="092D"/>
  <outline>
    <contour>
      <point x="199" y="310" type="line" smooth="yes"/>
      <point x="177" y="310"/>
      <point x="168" y="295"/>
      <point x="168" y="278" type="curve" smooth="yes"/>
      <point x="168" y="235"/>
      <point x="238" y="138"/>
      <point x="280" y="138" type="curve" smooth="yes"/>
      <point x="309" y="138"/>
      <point x="312" y="173"/>
      <point x="345" y="268" type="curve"/>
      <point x="369" y="352"/>
      <point x="384" y="416"/>
      <point x="384" y="442" type="curve" smooth="yes"/>
      <point x="384" y="527"/>
      <point x="316" y="633"/>
      <point x="218" y="633" type="curve" smooth="yes"/>
      <point x="163" y="633"/>
      <point x="106" y="595"/>
      <point x="106" y="520" type="curve" smooth="yes"/>
      <point x="106" y="468"/>
      <point x="144" y="422"/>
      <point x="208" y="422" type="curve"/>
      <point x="209" y="422"/>
      <point x="214" y="422"/>
      <point x="228" y="424" type="curve"/>
      <point x="230" y="435" type="line"/>
      <point x="204" y="447"/>
      <point x="179" y="471"/>
      <point x="179" y="501" type="curve" smooth="yes"/>
      <point x="179" y="541"/>
      <point x="213" y="563"/>
      <point x="248" y="563" type="curve" smooth="yes"/>
      <point x="287" y="563"/>
      <point x="311" y="544"/>
      <point x="311" y="487" type="curve" smooth="yes"/>
      <point x="311" y="436"/>
      <point x="283" y="350"/>
      <point x="246" y="235" type="curve"/>
      <point x="572" y="235" type="line"/>
      <point x="588" y="310" type="line"/>
    </contour>
    <contour>
      <point x="578" y="-10" type="line"/>
      <point x="691" y="581" type="line"/>
      <point x="607" y="581" type="line"/>
      <point x="500" y="52" type="line"/>
      <point x="568" y="-10" type="line"/>
    </contour>
    <contour>
      <point x="801" y="545" type="line"/>
      <point x="803" y="555" type="line"/>
      <point x="771" y="620" type="line"/>
      <point x="430" y="620" type="line"/>
      <point x="428" y="610" type="line"/>
      <point x="460" y="545" type="line"/>
    </contour>
  </outline>
</glyph>
<glyph name="dSa" format="2">
  <advance width="679"/>
  <unicode hex="0938"/>
  <outline>
    <contour>
      <point x="264" y="-20" type="line"/>
      <point x="317" y="18" type="line"/>
      <point x="145" y="246" type="line"/>
      <point x="141" y="235" type="line"/>
      <point x="203" y="243"/>
      <point x="243" y="272"/>
      <point x="270" y="319" type="curve" smooth="yes"/>
      <point x="304" y="378"/>
      <point x="318" y="463"/>
      <point x="331" y="564" type="curve"/>
      <point x="249" y="564" type="line"/>
      <point x="246" y="543"/>
      <point x="244" y="523"/>
      <point x="236" y="482" type="curve" smooth="yes"/>
      <point x="229" y="446"/>
      <point x="217" y="391"/>
      <point x="202" y="358" type="curve"/>
      <point x="215" y="367" type="line"/>
      <point x="194" y="370"/>
      <point x="143" y="374"/>
      <point x="121" y="374" type="curve" smooth="yes"/>
      <point x="79" y="374"/>
      <point x="63" y="361"/>
      <point x="63" y="334" type="curve" smooth="yes"/>
      <point x="63" y="303"/>
      <point x="77" y="264"/>
      <point x="119" y="196" type="curve" smooth="yes"/>
      <point x="254" y="-20" type="line"/>
    </contour>
    <contour>
      <point x="412" y="224" type="curve" smooth="yes"/>
      <point x="446" y="224"/>
      <point x="482" y="231"/>
      <point x="517" y="245" type="curve"/>
      <point x="531" y="346" type="line"/>
      <point x="509" y="325"/>
      <point x="459" y="301"/>
      <point x="399" y="301" type="curve" smooth="yes"/>
      <point x="352" y="301"/>
      <point x="289" y="321"/>
      <point x="272" y="337" type="curve"/>
      <point x="242" y="311" type="line"/>
      <point x="310" y="240"/>
      <point x="365" y="224"/>
    </contour>
    <contour>
      <point x="541" y="-10" type="line"/>
      <point x="652" y="571" type="line"/>
      <point x="568" y="571" type="line"/>
      <point x="464" y="52" type="line"/>
      <point x="531" y="-10" type="line"/>
    </contour>
    <contour>
      <point x="764" y="545" type="line"/>
      <point x="766" y="555" type="line"/>
      <point x="735" y="620" type="line"/>
      <point x="34" y="620" type="line"/>
      <point x="32" y="610" type="line"/>
      <point x="63" y="545" type="line"/>
    </contour>
  </outline>
</glyph>
<glyph name="dHa" format="2">
  <advance width="532"/>
  <unicode hex="0939"/>
  <outline>
    <contour>
      <point x="367" y="-124" type="line"/>
      <point x="198" y="-78"/>
      <point x="143" y="1"/>
      <point x="143" y="72" type="curve" smooth="yes"/>
      <point x="143" y="159"/>
      <point x="230" y="239"/>
      <point x="332" y="239" type="curve" smooth="yes"/>
      <point x="374" y="239"/>
      <point x="406" y="225"/>
      <point x="406" y="187" type="curve" smooth="yes"/>
      <point x="406" y="144"/>
      <point x="356" y="114"/>
      <point x="302" y="90" type="curve"/>
      <point x="338" y="18" type="line"/>
      <point x="436" y="54"/>
      <point x="470" y="102"/>
      <point x="470" y="158" type="curve" smooth="yes"/>
      <point x="470" y="214"/>
      <point x="434" y="297"/>
      <point x="313" y="297" type="curve" smooth="yes"/>
      <point x="178" y="297"/>
      <point x="64" y="203"/>
      <point x="64" y="89" type="curve" smooth="yes"/>
      <point x="64" y="-11"/>
      <point x="152" y="-111"/>
      <point x="349" y="-164" type="curve"/>
    </contour>
    <contour>
      <point x="159" y="227" type="line"/>
      <point x="144" y="241"/>
      <point x="132" y="269"/>
      <point x="132" y="300" type="curve" smooth="yes"/>
      <point x="132" y="355"/>
      <point x="184" y="385"/>
      <point x="273" y="385" type="curve" smooth="yes"/>
      <point x="461" y="385" type="line"/>
      <point x="475" y="393" type="line"/>
      <point x="485" y="445"/>
      <point x="500" y="527"/>
      <point x="509" y="581" type="curve"/>
      <point x="428" y="581" type="line"/>
      <point x="405" y="460" type="line"/>
      <point x="253" y="460" type="line" smooth="yes"/>
      <point x="112" y="460"/>
      <point x="64" y="401"/>
      <point x="64" y="331" type="curve" smooth="yes"/>
      <point x="64" y="271"/>
      <point x="93" y="220"/>
      <point x="127" y="191" type="curve"/>
    </contour>
    <contour>
      <point x="617" y="545" type="line"/>
      <point x="619" y="555" type="line"/>
      <point x="588" y="620" type="line"/>
      <point x="34" y="620" type="line"/>
      <point x="32" y="610" type="line"/>
      <point x="63" y="545" type="line"/>
    </contour>
  </outline>
</glyph>
<glyph name="dSignVocalicR" format="2">
  <unicode hex="0943"/>
  <outline>
    <contour>
      <point x="-107" y="-167" type="line"/>
      <point x="-153" y="-195"/>
      <point x="-200" y="-207"/>
      <point x="-232" y="-207" type="curve" smooth="yes"/>
      <point x="-280" y="-207"/>
      <point x="-293" y="-187"/>
      <point x="-293" y="-168" type="curve" smooth="yes"/>
      <point x="-293" y="-139"/>
      <point x="-257" y="-96"/>
      <point x="-138" y="-86" type="curve"/>
      <point x="-137" y="-80" type="line"/>
      <point x="-174" y="-17" type="line"/>
      <point x="-288" y="-28"/>
      <point x="-352" y="-77"/>
      <point x="-352" y="-142" type="curve" smooth="yes"/>
      <point x="-352" y="-194"/>
      <point x="-306" y="-271"/>
      <point x="-204" y="-271" type="curve" smooth="yes"/>
      <point x="-145" y="-271"/>
      <point x="-96" y="-252"/>
      <point x="-69" y="-234" type="curve"/>
    </contour>
  </outline>
  <guideline angle="127.438" x="-150" y="0"/>
</glyph>
<glyph name="DoubleDanda" format="2">
  <advance width="442"/>
  <unicode hex="0965"/>
  <outline>
    <contour>
      <point x="311" y="-15" type="line"/>
      <point x="424" y="568" type="line"/>
      <point x="360" y="628" type="line"/>
      <point x="350" y="628" type="line"/>
      <point x="237" y="45" type="line"/>
      <point x="301" y="-15" type="line"/>
    </contour>
    <contour>
      <point x="115" y="-13" type="line"/>
      <point x="229" y="570" type="line"/>
      <point x="164" y="630" type="line"/>
      <point x="154" y="630" type="line"/>
      <point x="41" y="47" type="line"/>
      <point x="105" y="-13" type="line"/>
    </contour>
  </outline>
</glyph>
<glyph name="dThree" format="2">
  <advance width="527"/>
  <unicode hex="0969"/>
  <outline>
    <contour>
      <point x="249" y="-146" type="line"/>
      <point x="304" y="-115" type="line"/>
      <point x="210" y="59" type="line"/>
      <point x="218" y="70" type="line"/>
      <point x="174" y="152"/>
      <point x="146" y="192"/>
      <point x="117" y="192" type="curve" smooth="yes"/>
      <point x="86" y="192"/>
      <point x="62" y="141"/>
      <point x="62" y="107" type="curve" smooth="yes"/>
      <point x="62" y="57"/>
      <point x="125" y="21"/>
      <point x="219" y="21" type="curve" smooth="yes"/>
      <point x="338" y="21"/>
      <point x="446" y="96"/>
      <point x="446" y="197" type="curve" smooth="yes"/>
      <point x="446" y="289"/>
      <point x="348" y="377"/>
      <point x="267" y="377" type="curve" smooth="yes"/>
      <point x="234" y="377"/>
      <point x="180" y="361"/>
      <point x="140" y="339" type="curve"/>
      <point x="168" y="265" type="line"/>
      <point x="204" y="280"/>
      <point x="251" y="300"/>
      <point x="298" y="300" type="curve" smooth="yes"/>
      <point x="343" y="300"/>
      <point x="377" y="275"/>
      <point x="377" y="223" type="curve" smooth="yes"/>
      <point x="377" y="157"/>
      <point x="319" y="92"/>
      <point x="200" y="92" type="curve" smooth="yes"/>
      <point x="194" y="92"/>
      <point x="198" y="92"/>
      <point x="185" y="93" type="curve"/>
      <point x="156" y="79" type="line"/>
      <point x="240" y="-146" type="line"/>
    </contour>
    <contour>
      <point x="366" y="318" type="line"/>
      <point x="409" y="343"/>
      <point x="447" y="378"/>
      <point x="447" y="438" type="curve" smooth="yes"/>
      <point x="447" y="533"/>
      <point x="363" y="598"/>
      <point x="274" y="598" type="curve" smooth="yes"/>
      <point x="221" y="598"/>
      <point x="156" y="578"/>
      <point x="102" y="548" type="curve"/>
      <point x="132" y="469" type="line"/>
      <point x="193" y="501"/>
      <point x="252" y="523"/>
      <point x="300" y="523" type="curve" smooth="yes"/>
      <point x="344" y="523"/>
      <point x="382" y="504"/>
      <point x="382" y="467" type="curve" smooth="yes"/>
      <point x="382" y="432"/>
      <point x="342" y="388"/>
      <point x="287" y="365" type="curve"/>
    </contour>
  </outline>
</glyph>
<glyph name="dCCa" format="2">
  <advance width="979"/>
  <outline>
    <contour>
      <point x="511" y="371" type="line"/>
      <point x="600" y="371" type="line"/>
      <point x="686" y="388" type="line"/>
      <point x="729" y="373" type="line"/>
      <point x="743" y="373"/>
      <point x="749" y="373"/>
      <point x="771" y="372" type="curve"/>
      <point x="773" y="382" type="line"/>
      <point x="742" y="446" type="line"/>
      <point x="65" y="446" type="line"/>
      <point x="63" y="436" type="line"/>
      <point x="95" y="370" type="line"/>
      <point x="279" y="370" type="line"/>
      <point x="385" y="385" type="line"/>
      <point x="425" y="370" type="line"/>
    </contour>
    <contour>
      <point x="650" y="128" type="curve" smooth="yes"/>
      <point x="708" y="128"/>
      <point x="750" y="149"/>
      <point x="815" y="194" type="curve"/>
      <point x="835" y="305" type="line"/>
      <point x="713" y="213"/>
      <point x="655" y="192"/>
      <point x="608" y="192" type="curve" smooth="yes"/>
      <point x="564" y="192"/>
      <point x="527" y="211"/>
      <point x="527" y="268" type="curve" smooth="yes"/>
      <point x="527" y="349"/>
      <point x="632" y="373"/>
      <point x="729" y="373" type="curve"/>
      <point x="735" y="402" type="line"/>
      <point x="523" y="402" type="line"/>
      <point x="480" y="363"/>
      <point x="461" y="327"/>
      <point x="461" y="289" type="curve" smooth="yes"/>
      <point x="461" y="228"/>
      <point x="518" y="128"/>
    </contour>
    <contour>
      <point x="1064" y="545" type="line"/>
      <point x="1066" y="555" type="line"/>
      <point x="1035" y="620" type="line"/>
      <point x="34" y="620" type="line"/>
      <point x="32" y="610" type="line"/>
      <point x="63" y="545" type="line"/>
    </contour>
    <contour>
      <point x="841" y="-10" type="line"/>
      <point x="954" y="581" type="line"/>
      <point x="870" y="581" type="line"/>
      <point x="764" y="52" type="line"/>
      <point x="831" y="-10" type="line"/>
    </contour>
    <contour>
      <point x="477" y="265" type="line"/>
      <point x="391" y="207"/>
      <point x="344" y="192"/>
      <point x="305" y="192" type="curve" smooth="yes"/>
      <point x="261" y="192"/>
      <point x="224" y="211"/>
      <point x="224" y="268" type="curve" smooth="yes"/>
      <point x="224" y="349"/>
      <point x="328" y="370"/>
      <point x="425" y="370" type="curve"/>
      <point x="432" y="402" type="line"/>
      <point x="220" y="402" type="line"/>
      <point x="177" y="363"/>
      <point x="158" y="327"/>
      <point x="158" y="289" type="curve" smooth="yes"/>
      <point x="158" y="228"/>
      <point x="215" y="128"/>
      <point x="347" y="128" type="curve" smooth="yes"/>
      <point x="405" y="128"/>
      <point x="447" y="149"/>
      <point x="512" y="194" type="curve"/>
      <point x="512" y="195" type="line"/>
    </contour>
  </outline>
</glyph>
<glyph name="dDDYa" format="2">
  <advance width="978"/>
  <outline>
    <component base="dDDa"/>
    <contour>
      <point x="834" y="-45" type="line"/>
      <point x="955" y="591" type="line"/>
      <point x="871" y="591" type="line"/>
      <point x="756" y="17" type="line"/>
      <point x="824" y="-45" type="line"/>
    </contour>
    <contour>
      <point x="1063" y="545" type="line"/>
      <point x="1065" y="555" type="line"/>
      <point x="1034" y="620" type="line"/>
      <point x="513" y="620" type="line"/>
      <point x="511" y="610" type="line"/>
      <point x="542" y="545" type="line"/>
    </contour>
    <contour>
      <point x="587" y="383" type="line" smooth="yes"/>
      <point x="641" y="383"/>
      <point x="654" y="372"/>
      <point x="654" y="350" type="curve" smooth="yes"/>
      <point x="654" y="313"/>
      <point x="601" y="281"/>
      <point x="492" y="258" type="curve"/>
      <point x="491" y="160"/>
      <point x="565" y="58"/>
      <point x="665" y="58" type="curve" smooth="yes"/>
      <point x="700" y="58"/>
      <point x="732" y="68"/>
      <point x="768" y="88" type="curve"/>
      <point x="783" y="80" type="line"/>
      <point x="807" y="198" type="line"/>
      <point x="744" y="149"/>
      <point x="689" y="121"/>
      <point x="644" y="121" type="curve" smooth="yes"/>
      <point x="594" y="121"/>
      <point x="563" y="153"/>
      <point x="565" y="193" type="curve"/>
      <point x="673" y="217"/>
      <point x="718" y="258"/>
      <point x="718" y="321" type="curve" smooth="yes"/>
      <point x="718" y="392"/>
      <point x="668" y="456"/>
      <point x="564" y="456" type="curve" smooth="yes"/>
      <point x="352" y="456" type="line"/>
      <point x="352" y="383" type="line"/>
    </contour>
  </outline>
</glyph>
<glyph name="dDGha" format="2">
  <advance width="599"/>
  <outline>
    <contour>
      <point x="521" y="-165" type="line"/>
      <point x="575" y="-134" type="line"/>
      <point x="429" y="167" type="line"/>
      <point x="393" y="144"/>
      <point x="361" y="132"/>
      <point x="316" y="132" type="curve" smooth="yes"/>
      <point x="253" y="132"/>
      <point x="202" y="173"/>
      <point x="202" y="245" type="curve" smooth="yes"/>
      <point x="202" y="338"/>
      <point x="267" y="376"/>
      <point x="366" y="376" type="curve" smooth="yes"/>
      <point x="507" y="376" type="line"/>
      <point x="520" y="384" type="line"/>
      <point x="531" y="436"/>
      <point x="544" y="508"/>
      <point x="557" y="580" type="curve"/>
      <point x="476" y="580" type="line"/>
      <point x="451" y="451" type="line"/>
      <point x="357" y="451" type="line" smooth="yes"/>
      <point x="230" y="451"/>
      <point x="135" y="416"/>
      <point x="135" y="290" type="curve" smooth="yes"/>
      <point x="135" y="166"/>
      <point x="226" y="65"/>
      <point x="369" y="65" type="curve" smooth="yes"/>
      <point x="455" y="65"/>
      <point x="525" y="117"/>
      <point x="525" y="168" type="curve" smooth="yes"/>
      <point x="525" y="212"/>
      <point x="459" y="254"/>
      <point x="417" y="254" type="curve" smooth="yes"/>
      <point x="392" y="254"/>
      <point x="379" y="242"/>
      <point x="379" y="209" type="curve" smooth="yes"/>
      <point x="379" y="189"/>
      <point x="387" y="153"/>
      <point x="415" y="82" type="curve" smooth="yes"/>
      <point x="512" y="-165" type="line"/>
    </contour>
    <contour>
      <point x="119" y="37" type="line"/>
      <point x="88" y="54"/>
      <point x="78" y="84"/>
      <point x="78" y="105" type="curve" smooth="yes"/>
      <point x="78" y="144"/>
      <point x="116" y="173"/>
      <point x="181" y="183" type="curve"/>
      <point x="167" y="247" type="line"/>
      <point x="52" y="229"/>
      <point x="-6" y="172"/>
      <point x="-6" y="117" type="curve" smooth="yes"/>
      <point x="-6" y="56"/>
      <point x="44" y="22"/>
      <point x="88" y="5" type="curve"/>
    </contour>
    <contour>
      <point x="228" y="-138" type="curve" smooth="yes"/>
      <point x="286" y="-138"/>
      <point x="391" y="-111"/>
      <point x="450" y="58" type="curve"/>
      <point x="389" y="105" type="line"/>
      <point x="350" y="-29"/>
      <point x="251" y="-84"/>
      <point x="195" y="-84" type="curve" smooth="yes"/>
      <point x="170" y="-84"/>
      <point x="149" y="-73"/>
      <point x="149" y="-46" type="curve" smooth="yes"/>
      <point x="149" y="-14"/>
      <point x="177" y="14"/>
      <point x="233" y="34" type="curve"/>
      <point x="186" y="94" type="line"/>
      <point x="124" y="67"/>
      <point x="74" y="37"/>
      <point x="74" y="-21" type="curve" smooth="yes"/>
      <point x="74" y="-90"/>
      <point x="158" y="-138"/>
    </contour>
    <contour>
      <point x="684" y="545" type="line"/>
      <point x="686" y="555" type="line"/>
      <point x="654" y="620" type="line"/>
      <point x="33" y="620" type="line"/>
      <point x="31" y="610" type="line"/>
      <point x="63" y="545" type="line"/>
    </contour>
  </outline>
</glyph>
<glyph name="dDRYa" format="2">
  <advance width="722"/>
  <outline>
    <contour>
      <point x="351" y="5" type="curve" smooth="yes"/>
      <point x="413" y="5"/>
      <point x="456" y="19"/>
      <point x="528" y="63" type="curve"/>
      <point x="548" y="165" type="line"/>
      <point x="447" y="97"/>
      <point x="382" y="70"/>
      <point x="324" y="70" type="curve" smooth="yes"/>
      <point x="265" y="70"/>
      <point x="243" y="96"/>
      <point x="243" y="122" type="curve" smooth="yes"/>
      <point x="243" y="152"/>
      <point x="269" y="187"/>
      <point x="356" y="204" type="curve"/>
      <point x="283" y="254" type="line"/>
      <point x="224" y="259"/>
      <point x="201" y="294"/>
      <point x="201" y="327" type="curve" smooth="yes"/>
      <point x="201" y="366"/>
      <point x="228" y="385"/>
      <point x="276" y="385" type="curve" smooth="yes"/>
      <point x="450" y="385" type="line"/>
      <point x="465" y="393" type="line"/>
      <point x="475" y="445"/>
      <point x="488" y="517"/>
      <point x="497" y="571" type="curve"/>
      <point x="416" y="571" type="line"/>
      <point x="395" y="460" type="line"/>
      <point x="266" y="460" type="line" smooth="yes"/>
      <point x="172" y="460"/>
      <point x="136" y="422"/>
      <point x="136" y="363" type="curve" smooth="yes"/>
      <point x="136" y="312"/>
      <point x="166" y="240"/>
      <point x="240" y="209" type="curve"/>
      <point x="282" y="202" type="line"/>
      <point x="307" y="198"/>
      <point x="330" y="196"/>
      <point x="360" y="196" type="curve" smooth="yes"/>
      <point x="442" y="196"/>
      <point x="448" y="216"/>
      <point x="448" y="232" type="curve" smooth="yes"/>
      <point x="448" y="247"/>
      <point x="434" y="283"/>
      <point x="410" y="283" type="curve" smooth="yes"/>
      <point x="353" y="283"/>
      <point x="296" y="269"/>
      <point x="254" y="249" type="curve"/>
      <point x="181" y="155" type="line"/>
      <point x="181" y="91"/>
      <point x="237" y="5"/>
    </contour>
    <contour>
      <point x="346" y="224" type="line"/>
      <point x="243" y="242" type="line"/>
      <point x="-17" y="81" type="line"/>
      <point x="33" y="19" type="line"/>
    </contour>
    <contour>
      <point x="575" y="-60" type="line"/>
      <point x="695" y="571" type="line"/>
      <point x="611" y="571" type="line"/>
      <point x="497" y="2" type="line"/>
      <point x="565" y="-60" type="line"/>
    </contour>
    <contour>
      <point x="807" y="545" type="line"/>
      <point x="809" y="555" type="line"/>
      <point x="778" y="620" type="line"/>
      <point x="34" y="620" type="line"/>
      <point x="32" y="610" type="line"/>
      <point x="63" y="545" type="line"/>
    </contour>
  </outline>
</glyph>
<glyph name="dDVYa" format="2">
  <advance width="1013"/>
  <outline>
    <contour>
      <point x="453" y="-170" type="line"/>
      <point x="508" y="-139" type="line"/>
      <point x="396" y="87" type="line"/>
      <point x="441" y="112"/>
      <point x="458" y="150"/>
      <point x="458" y="169" type="curve" smooth="yes"/>
      <point x="458" y="213"/>
      <point x="384" y="257"/>
      <point x="344" y="257" type="curve" smooth="yes"/>
      <point x="319" y="257"/>
      <point x="308" y="245"/>
      <point x="308" y="215" type="curve" smooth="yes"/>
      <point x="308" y="200"/>
      <point x="312" y="175"/>
      <point x="321" y="146" type="curve"/>
      <point x="297" y="136"/>
      <point x="270" y="133"/>
      <point x="249" y="133" type="curve" smooth="yes"/>
      <point x="185" y="133"/>
      <point x="131" y="168"/>
      <point x="131" y="247" type="curve" smooth="yes"/>
      <point x="131" y="339"/>
      <point x="198" y="379"/>
      <point x="286" y="379" type="curve" smooth="yes"/>
      <point x="620" y="379" type="line" smooth="yes"/>
      <point x="674" y="379"/>
      <point x="687" y="368"/>
      <point x="687" y="346" type="curve" smooth="yes"/>
      <point x="687" y="309"/>
      <point x="634" y="277"/>
      <point x="525" y="254" type="curve"/>
      <point x="524" y="156"/>
      <point x="598" y="55"/>
      <point x="698" y="55" type="curve" smooth="yes"/>
      <point x="733" y="55"/>
      <point x="765" y="64"/>
      <point x="801" y="84" type="curve"/>
      <point x="816" y="76" type="line"/>
      <point x="840" y="194" type="line"/>
      <point x="777" y="145"/>
      <point x="722" y="118"/>
      <point x="677" y="118" type="curve" smooth="yes"/>
      <point x="627" y="118"/>
      <point x="596" y="149"/>
      <point x="598" y="189" type="curve"/>
      <point x="706" y="213"/>
      <point x="751" y="259"/>
      <point x="751" y="317" type="curve" smooth="yes"/>
      <point x="751" y="388"/>
      <point x="701" y="454"/>
      <point x="597" y="454" type="curve" smooth="yes"/>
      <point x="288" y="454" type="line" smooth="yes"/>
      <point x="144" y="454"/>
      <point x="64" y="418"/>
      <point x="64" y="289" type="curve" smooth="yes"/>
      <point x="64" y="172"/>
      <point x="146" y="66"/>
      <point x="302" y="66" type="curve" smooth="yes"/>
      <point x="319" y="66"/>
      <point x="334" y="68"/>
      <point x="348" y="70" type="curve"/>
      <point x="445" y="-170" type="line"/>
    </contour>
    <contour>
      <point x="209" y="-131" type="curve" smooth="yes"/>
      <point x="275" y="-131"/>
      <point x="352" y="-98"/>
      <point x="397" y="9" type="curve"/>
      <point x="353" y="101" type="line"/>
      <point x="313" y="-29"/>
      <point x="229" y="-67"/>
      <point x="169" y="-67" type="curve" smooth="yes"/>
      <point x="143" y="-67"/>
      <point x="115" y="-57"/>
      <point x="115" y="-27" type="curve" smooth="yes"/>
      <point x="115" y="28"/>
      <point x="185" y="63"/>
      <point x="248" y="75" type="curve"/>
      <point x="168" y="124" type="line"/>
      <point x="89" y="92"/>
      <point x="51" y="61"/>
      <point x="51" y="2" type="curve" smooth="yes"/>
      <point x="51" y="-59"/>
      <point x="105" y="-131"/>
    </contour>
    <contour>
      <point x="454" y="407" type="line"/>
      <point x="487" y="591" type="line"/>
      <point x="406" y="591" type="line"/>
      <point x="371" y="407" type="line"/>
    </contour>
    <contour>
      <point x="1098" y="545" type="line"/>
      <point x="1100" y="555" type="line"/>
      <point x="1069" y="620" type="line"/>
      <point x="34" y="620" type="line"/>
      <point x="32" y="610" type="line"/>
      <point x="63" y="545" type="line"/>
    </contour>
    <contour>
      <point x="869" y="-45" type="line"/>
      <point x="990" y="591" type="line"/>
      <point x="906" y="591" type="line"/>
      <point x="791" y="17" type="line"/>
      <point x="859" y="-45" type="line"/>
    </contour>
  </outline>
</glyph>
<glyph name="dDdJa" format="2">
  <advance width="565"/>
  <outline>
    <contour>
      <point x="320" y="80" type="curve" smooth="yes"/>
      <point x="449" y="80"/>
      <point x="497" y="139"/>
      <point x="497" y="202" type="curve" smooth="yes"/>
      <point x="497" y="268"/>
      <point x="434" y="335"/>
      <point x="385" y="335" type="curve" smooth="yes"/>
      <point x="353" y="335"/>
      <point x="261" y="313"/>
      <point x="237" y="313" type="curve" smooth="yes"/>
      <point x="219" y="313"/>
      <point x="202" y="331"/>
      <point x="202" y="357" type="curve" smooth="yes"/>
      <point x="202" y="395"/>
      <point x="228" y="410"/>
      <point x="276" y="410" type="curve" smooth="yes"/>
      <point x="467" y="410" type="line"/>
      <point x="481" y="418" type="line"/>
      <point x="491" y="469"/>
      <point x="501" y="523"/>
      <point x="512" y="583" type="curve"/>
      <point x="432" y="583" type="line"/>
      <point x="412" y="482" type="line"/>
      <point x="265" y="482" type="line" smooth="yes"/>
      <point x="171" y="482"/>
      <point x="137" y="447"/>
      <point x="137" y="388" type="curve" smooth="yes"/>
      <point x="137" y="319"/>
      <point x="210" y="243"/>
      <point x="268" y="243" type="curve" smooth="yes"/>
      <point x="302" y="243"/>
      <point x="371" y="264"/>
      <point x="407" y="264" type="curve" smooth="yes"/>
      <point x="426" y="264"/>
      <point x="435" y="255"/>
      <point x="435" y="237" type="curve" smooth="yes"/>
      <point x="435" y="201"/>
      <point x="405" y="152"/>
      <point x="305" y="152" type="curve" smooth="yes"/>
      <point x="176" y="152"/>
      <point x="125" y="206"/>
      <point x="85" y="305" type="curve"/>
      <point x="48" y="287" type="line"/>
      <point x="91" y="161"/>
      <point x="184" y="80"/>
    </contour>
    <contour>
      <point x="183" y="-248" type="curve" smooth="yes"/>
      <point x="239" y="-248"/>
      <point x="295" y="-216"/>
      <point x="295" y="-139" type="curve" smooth="yes"/>
      <point x="295" y="-103"/>
      <point x="276" y="-65"/>
      <point x="236" y="-24" type="curve"/>
      <point x="170" y="-31" type="line"/>
      <point x="217" y="-50"/>
      <point x="237" y="-80"/>
      <point x="237" y="-112" type="curve" smooth="yes"/>
      <point x="237" y="-149"/>
      <point x="208" y="-180"/>
      <point x="165" y="-180" type="curve" smooth="yes"/>
      <point x="85" y="-180"/>
      <point x="41" y="-110"/>
      <point x="7" y="8" type="curve"/>
      <point x="-28" y="-6" type="line"/>
      <point x="6" y="-125"/>
      <point x="62" y="-248"/>
    </contour>
    <contour>
      <point x="410" y="-39" type="line"/>
      <point x="422" y="24" type="line"/>
      <point x="149" y="24" type="line"/>
      <point x="147" y="15" type="line"/>
      <point x="170" y="-31" type="line"/>
      <point x="234" y="-39" type="line"/>
    </contour>
    <contour>
      <point x="390" y="-325" type="line"/>
      <point x="493" y="212" type="line"/>
      <point x="409" y="142" type="line"/>
      <point x="324" y="-272" type="line"/>
      <point x="381" y="-325" type="line"/>
    </contour>
    <contour>
      <point x="650" y="545" type="line"/>
      <point x="652" y="555" type="line"/>
      <point x="621" y="620" type="line"/>
      <point x="34" y="620" type="line"/>
      <point x="32" y="610" type="line"/>
      <point x="63" y="545" type="line"/>
    </contour>
  </outline>
</glyph>
<glyph name="dDdMa" format="2">
  <advance width="555"/>
  <outline>
    <contour>
      <point x="367" y="-290" type="line"/>
      <point x="448" y="151" type="line"/>
      <point x="369" y="121" type="line"/>
      <point x="297" y="-235" type="line"/>
      <point x="358" y="-290" type="line"/>
    </contour>
    <contour>
      <point x="640" y="545" type="line"/>
      <point x="642" y="555" type="line"/>
      <point x="610" y="620" type="line"/>
      <point x="33" y="620" type="line"/>
      <point x="31" y="610" type="line"/>
      <point x="63" y="545" type="line"/>
    </contour>
    <contour>
      <point x="322" y="80" type="curve" smooth="yes"/>
      <point x="451" y="80"/>
      <point x="499" y="139"/>
      <point x="499" y="202" type="curve" smooth="yes"/>
      <point x="499" y="268"/>
      <point x="436" y="335"/>
      <point x="387" y="335" type="curve" smooth="yes"/>
      <point x="355" y="335"/>
      <point x="263" y="313"/>
      <point x="239" y="313" type="curve" smooth="yes"/>
      <point x="221" y="313"/>
      <point x="204" y="331"/>
      <point x="204" y="357" type="curve" smooth="yes"/>
      <point x="204" y="395"/>
      <point x="230" y="410"/>
      <point x="278" y="410" type="curve" smooth="yes"/>
      <point x="469" y="410" type="line"/>
      <point x="483" y="418" type="line"/>
      <point x="493" y="469"/>
      <point x="503" y="523"/>
      <point x="514" y="583" type="curve"/>
      <point x="434" y="583" type="line"/>
      <point x="414" y="482" type="line"/>
      <point x="267" y="482" type="line" smooth="yes"/>
      <point x="173" y="482"/>
      <point x="139" y="447"/>
      <point x="139" y="388" type="curve" smooth="yes"/>
      <point x="139" y="319"/>
      <point x="212" y="243"/>
      <point x="270" y="243" type="curve" smooth="yes"/>
      <point x="304" y="243"/>
      <point x="373" y="264"/>
      <point x="409" y="264" type="curve" smooth="yes"/>
      <point x="428" y="264"/>
      <point x="437" y="255"/>
      <point x="437" y="237" type="curve" smooth="yes"/>
      <point x="437" y="201"/>
      <point x="405" y="152"/>
      <point x="307" y="152" type="curve" smooth="yes"/>
      <point x="174" y="152"/>
      <point x="125" y="212"/>
      <point x="89" y="304" type="curve"/>
      <point x="52" y="286" type="line"/>
      <point x="99" y="155"/>
      <point x="184" y="80"/>
    </contour>
    <contour>
      <point x="110" y="-206" type="curve" smooth="yes"/>
      <point x="124" y="-206"/>
      <point x="134" y="-198"/>
      <point x="137" y="-181" type="curve" smooth="yes"/>
      <point x="198" y="142" type="line"/>
      <point x="135" y="186" type="line"/>
      <point x="76" y="-114" type="line"/>
      <point x="359" y="-114" type="line"/>
      <point x="371" y="-49" type="line"/>
      <point x="39" y="-49" type="line" smooth="yes"/>
      <point x="18" y="-49"/>
      <point x="9" y="-60"/>
      <point x="9" y="-77" type="curve" smooth="yes"/>
      <point x="9" y="-120"/>
      <point x="72" y="-206"/>
    </contour>
  </outline>
</glyph>
<glyph name="dDdVa" format="2">
  <advance width="577"/>
  <outline>
    <contour>
      <point x="371" y="-274" type="line"/>
      <point x="437" y="76" type="line"/>
      <point x="359" y="52" type="line"/>
      <point x="303" y="-220" type="line"/>
      <point x="362" y="-274" type="line"/>
    </contour>
    <contour>
      <point x="662" y="545" type="line"/>
      <point x="664" y="555" type="line"/>
      <point x="632" y="620" type="line"/>
      <point x="33" y="620" type="line"/>
      <point x="31" y="610" type="line"/>
      <point x="63" y="545" type="line"/>
    </contour>
    <contour>
      <point x="321" y="13" type="curve" smooth="yes"/>
      <point x="455" y="13"/>
      <point x="516" y="90"/>
      <point x="516" y="152" type="curve" smooth="yes"/>
      <point x="516" y="224"/>
      <point x="454" y="298"/>
      <point x="405" y="298" type="curve" smooth="yes"/>
      <point x="365" y="298"/>
      <point x="265" y="273"/>
      <point x="242" y="273" type="curve" smooth="yes"/>
      <point x="221" y="273"/>
      <point x="200" y="293"/>
      <point x="200" y="326" type="curve" smooth="yes"/>
      <point x="200" y="366"/>
      <point x="227" y="385"/>
      <point x="275" y="385" type="curve" smooth="yes"/>
      <point x="485" y="385" type="line"/>
      <point x="499" y="393" type="line"/>
      <point x="509" y="445"/>
      <point x="524" y="527"/>
      <point x="534" y="581" type="curve"/>
      <point x="453" y="581" type="line"/>
      <point x="429" y="460" type="line"/>
      <point x="264" y="460" type="line" smooth="yes"/>
      <point x="170" y="460"/>
      <point x="135" y="419"/>
      <point x="135" y="358" type="curve" smooth="yes"/>
      <point x="135" y="280"/>
      <point x="205" y="201"/>
      <point x="265" y="201" type="curve" smooth="yes"/>
      <point x="299" y="201"/>
      <point x="385" y="225"/>
      <point x="424" y="225" type="curve" smooth="yes"/>
      <point x="445" y="225"/>
      <point x="456" y="212"/>
      <point x="456" y="194" type="curve" smooth="yes"/>
      <point x="456" y="166"/>
      <point x="426" y="88"/>
      <point x="300" y="88" type="curve" smooth="yes"/>
      <point x="163" y="88"/>
      <point x="103" y="175"/>
      <point x="69" y="281" type="curve"/>
      <point x="30" y="260" type="line"/>
      <point x="75" y="97"/>
      <point x="184" y="13"/>
    </contour>
    <contour>
      <point x="232" y="-186" type="curve" smooth="yes"/>
      <point x="267" y="-186"/>
      <point x="294" y="-176"/>
      <point x="334" y="-158" type="curve"/>
      <point x="351" y="-69" type="line"/>
      <point x="267" y="-119"/>
      <point x="232" y="-128"/>
      <point x="200" y="-128" type="curve" smooth="yes"/>
      <point x="165" y="-128"/>
      <point x="142" y="-113"/>
      <point x="142" y="-79" type="curve" smooth="yes"/>
      <point x="142" y="-20"/>
      <point x="208" y="16"/>
      <point x="275" y="19" type="curve"/>
      <point x="166" y="67" type="line"/>
      <point x="115" y="38"/>
      <point x="80" y="0"/>
      <point x="80" y="-55" type="curve" smooth="yes"/>
      <point x="80" y="-130"/>
      <point x="154" y="-186"/>
    </contour>
  </outline>
  <guideline angle="90" x="473" y="0"/>
</glyph>
<glyph name="dDdhYa" format="2">
  <advance width="1048"/>
  <outline>
    <contour>
      <point x="489" y="442" type="line"/>
      <point x="497" y="481"/>
      <point x="508" y="543"/>
      <point x="515" y="581" type="curve"/>
      <point x="434" y="581" type="line"/>
      <point x="407" y="442" type="line"/>
    </contour>
    <contour>
      <point x="1133" y="545" type="line"/>
      <point x="1135" y="555" type="line"/>
      <point x="1104" y="620" type="line"/>
      <point x="34" y="620" type="line"/>
      <point x="32" y="610" type="line"/>
      <point x="63" y="545" type="line"/>
    </contour>
    <contour>
      <point x="904" y="-45" type="line"/>
      <point x="1023" y="581" type="line"/>
      <point x="939" y="581" type="line"/>
      <point x="826" y="17" type="line"/>
      <point x="894" y="-45" type="line"/>
    </contour>
    <contour>
      <point x="709" y="118" type="curve" smooth="yes"/>
      <point x="662" y="118"/>
      <point x="630" y="150"/>
      <point x="634" y="190" type="curve"/>
      <point x="752" y="219"/>
      <point x="787" y="259"/>
      <point x="787" y="321" type="curve" smooth="yes"/>
      <point x="787" y="375"/>
      <point x="746" y="458"/>
      <point x="635" y="458" type="curve" smooth="yes"/>
      <point x="284" y="458" type="line" smooth="yes"/>
      <point x="152" y="458"/>
      <point x="58" y="415"/>
      <point x="58" y="279" type="curve" smooth="yes"/>
      <point x="58" y="120"/>
      <point x="182" y="22"/>
      <point x="316" y="22" type="curve" smooth="yes"/>
      <point x="428" y="22"/>
      <point x="500" y="87"/>
      <point x="500" y="176" type="curve" smooth="yes"/>
      <point x="500" y="256"/>
      <point x="434" y="311"/>
      <point x="358" y="311" type="curve" smooth="yes"/>
      <point x="276" y="311"/>
      <point x="222" y="262"/>
      <point x="222" y="173" type="curve" smooth="yes"/>
      <point x="222" y="150"/>
      <point x="226" y="126"/>
      <point x="231" y="105" type="curve"/>
      <point x="167" y="121"/>
      <point x="123" y="163"/>
      <point x="123" y="241" type="curve" smooth="yes"/>
      <point x="123" y="333"/>
      <point x="191" y="384"/>
      <point x="292" y="384" type="curve" smooth="yes"/>
      <point x="656" y="384" type="line" smooth="yes"/>
      <point x="713" y="384"/>
      <point x="723" y="370"/>
      <point x="723" y="354" type="curve" smooth="yes"/>
      <point x="723" y="313"/>
      <point x="670" y="281"/>
      <point x="561" y="254" type="curve"/>
      <point x="559" y="142"/>
      <point x="636" y="55"/>
      <point x="737" y="55" type="curve" smooth="yes"/>
      <point x="772" y="55"/>
      <point x="808" y="65"/>
      <point x="838" y="85" type="curve"/>
      <point x="854" y="77" type="line"/>
      <point x="876" y="194" type="line"/>
      <point x="813" y="145"/>
      <point x="752" y="118"/>
    </contour>
    <contour>
      <point x="272" y="113" type="curve" smooth="yes"/>
      <point x="272" y="178"/>
      <point x="319" y="244"/>
      <point x="386" y="244" type="curve" smooth="yes"/>
      <point x="423" y="244"/>
      <point x="448" y="225"/>
      <point x="448" y="192" type="curve" smooth="yes"/>
      <point x="448" y="148"/>
      <point x="394" y="97"/>
      <point x="298" y="97" type="curve" smooth="yes"/>
      <point x="289" y="97"/>
      <point x="281" y="97"/>
      <point x="273" y="98" type="curve"/>
      <point x="272" y="103"/>
      <point x="272" y="108"/>
    </contour>
  </outline>
</glyph>
<glyph name="dDhRa" format="2">
  <advance width="654"/>
  <outline>
    <contour>
      <point x="485" y="181" type="line"/>
      <point x="503" y="277" type="line"/>
      <point x="114" y="43" type="line"/>
      <point x="164" y="-20" type="line"/>
    </contour>
    <contour>
      <point x="516" y="-10" type="line"/>
      <point x="629" y="581" type="line"/>
      <point x="546" y="581" type="line"/>
      <point x="439" y="51" type="line"/>
      <point x="506" y="-10" type="line"/>
    </contour>
    <contour>
      <point x="739" y="545" type="line"/>
      <point x="741" y="555" type="line"/>
      <point x="710" y="620" type="line"/>
      <point x="421" y="620" type="line"/>
      <point x="419" y="610" type="line"/>
      <point x="450" y="545" type="line"/>
    </contour>
    <contour>
      <point x="247" y="417" type="curve" smooth="yes"/>
      <point x="209" y="417"/>
      <point x="172" y="437"/>
      <point x="172" y="486" type="curve" smooth="yes"/>
      <point x="172" y="534"/>
      <point x="206" y="564"/>
      <point x="254" y="564" type="curve" smooth="yes"/>
      <point x="297" y="564"/>
      <point x="327" y="545"/>
      <point x="334" y="491" type="curve"/>
      <point x="343" y="491" type="line"/>
      <point x="349" y="503"/>
      <point x="352" y="519"/>
      <point x="352" y="537" type="curve" smooth="yes"/>
      <point x="352" y="583"/>
      <point x="317" y="633"/>
      <point x="239" y="633" type="curve" smooth="yes"/>
      <point x="164" y="633"/>
      <point x="105" y="591"/>
      <point x="105" y="514" type="curve" smooth="yes"/>
      <point x="105" y="457"/>
      <point x="136" y="404"/>
      <point x="216" y="360" type="curve"/>
      <point x="201" y="395" type="line"/>
      <point x="151" y="365"/>
      <point x="136" y="332"/>
      <point x="136" y="291" type="curve" smooth="yes"/>
      <point x="136" y="219"/>
      <point x="199" y="135"/>
      <point x="318" y="135" type="curve"/>
      <point x="536" y="226" type="line"/>
      <point x="519" y="293" type="line"/>
      <point x="422" y="222"/>
      <point x="352" y="192"/>
      <point x="293" y="192" type="curve" smooth="yes"/>
      <point x="235" y="192"/>
      <point x="202" y="216"/>
      <point x="202" y="260" type="curve" smooth="yes"/>
      <point x="202" y="305"/>
      <point x="250" y="347"/>
      <point x="411" y="363" type="curve"/>
      <point x="389" y="441" type="line"/>
      <point x="328" y="435"/>
      <point x="285" y="417"/>
    </contour>
  </outline>
</glyph>
<glyph name="dFive.sups" format="2">
  <advance width="469"/>
  <outline>
    <contour>
      <point x="483" y="222" type="line"/>
      <point x="416" y="462" type="line"/>
      <point x="387" y="478" type="line"/>
      <point x="364" y="453"/>
      <point x="322" y="432"/>
      <point x="285" y="432" type="curve" smooth="yes"/>
      <point x="245" y="432"/>
      <point x="224" y="453"/>
      <point x="224" y="490" type="curve" smooth="yes"/>
      <point x="224" y="531"/>
      <point x="262" y="600"/>
      <point x="306" y="672" type="curve"/>
      <point x="238" y="717" type="line"/>
      <point x="226" y="717" type="line"/>
      <point x="187" y="645"/>
      <point x="161" y="565"/>
      <point x="161" y="530" type="curve" smooth="yes"/>
      <point x="161" y="449"/>
      <point x="234" y="368"/>
      <point x="318" y="368" type="curve" smooth="yes"/>
      <point x="404" y="368"/>
      <point x="480" y="451"/>
      <point x="480" y="494" type="curve" smooth="yes"/>
      <point x="480" y="528"/>
      <point x="429" y="568"/>
      <point x="400" y="568" type="curve" smooth="yes"/>
      <point x="380" y="568"/>
      <point x="368" y="551"/>
      <point x="368" y="529" type="curve" smooth="yes"/>
      <point x="368" y="507"/>
      <point x="374" y="456"/>
      <point x="384" y="439" type="curve"/>
      <point x="423" y="207" type="line"/>
      <point x="431" y="205" type="line"/>
    </contour>
  </outline>
</glyph>
<glyph name="dGNa" format="2">
  <advance width="598"/>
  <outline>
    <contour>
      <point x="252" y="-10" type="curve" smooth="yes"/>
      <point x="276" y="-10"/>
      <point x="281" y="2"/>
      <point x="281" y="14" type="curve" smooth="yes"/>
      <point x="281" y="31"/>
      <point x="275" y="50"/>
      <point x="262" y="95" type="curve"/>
      <point x="456" y="238" type="line"/>
      <point x="449" y="319" type="line"/>
      <point x="183" y="129" type="line" smooth="yes"/>
      <point x="144" y="101"/>
      <point x="121" y="83"/>
      <point x="121" y="64" type="curve" smooth="yes"/>
      <point x="121" y="32"/>
      <point x="216" y="-10"/>
    </contour>
    <contour>
      <point x="460" y="-15" type="line"/>
      <point x="575" y="591" type="line"/>
      <point x="491" y="591" type="line"/>
      <point x="414" y="208" type="line"/>
      <point x="416" y="207" type="line"/>
      <point x="382" y="47" type="line"/>
      <point x="450" y="-15" type="line"/>
    </contour>
    <contour>
      <point x="683" y="545" type="line"/>
      <point x="685" y="555" type="line"/>
      <point x="654" y="620" type="line"/>
      <point x="34" y="620" type="line"/>
      <point x="32" y="610" type="line"/>
      <point x="63" y="545" type="line"/>
    </contour>
    <contour>
      <point x="169" y="389" type="line"/>
      <point x="108" y="389" type="line" smooth="yes"/>
      <point x="87" y="389"/>
      <point x="78" y="377"/>
      <point x="78" y="360" type="curve" smooth="yes"/>
      <point x="78" y="316"/>
      <point x="157" y="212"/>
      <point x="196" y="212" type="curve" smooth="yes"/>
      <point x="211" y="212"/>
      <point x="221" y="220"/>
      <point x="224" y="237" type="curve" smooth="yes"/>
      <point x="285" y="562" type="line"/>
      <point x="203" y="562" type="line"/>
    </contour>
  </outline>
</glyph>
<glyph name="dHLa" format="2">
  <advance width="646"/>
  <outline>
    <contour>
      <point x="329" y="-193" type="line"/>
      <point x="149" y="-139"/>
      <point x="103" y="-48"/>
      <point x="103" y="31" type="curve" smooth="yes"/>
      <point x="103" y="153"/>
      <point x="215" y="245"/>
      <point x="355" y="245" type="curve" smooth="yes"/>
      <point x="468" y="245"/>
      <point x="527" y="179"/>
      <point x="527" y="118" type="curve" smooth="yes"/>
      <point x="527" y="75"/>
      <point x="503" y="24"/>
      <point x="441" y="-29" type="curve"/>
      <point x="499" y="-83" type="line"/>
      <point x="561" y="-32"/>
      <point x="590" y="29"/>
      <point x="590" y="91" type="curve" smooth="yes"/>
      <point x="590" y="195"/>
      <point x="497" y="300"/>
      <point x="329" y="300" type="curve" smooth="yes"/>
      <point x="172" y="300"/>
      <point x="27" y="208"/>
      <point x="27" y="60" type="curve" smooth="yes"/>
      <point x="27" y="-50"/>
      <point x="105" y="-171"/>
      <point x="311" y="-229" type="curve"/>
    </contour>
    <contour>
      <point x="378" y="-109" type="line"/>
      <point x="276" y="-71"/>
      <point x="242" y="-25"/>
      <point x="242" y="33" type="curve" smooth="yes"/>
      <point x="242" y="82"/>
      <point x="276" y="119"/>
      <point x="318" y="119" type="curve" smooth="yes"/>
      <point x="339" y="119"/>
      <point x="360" y="109"/>
      <point x="374" y="96" type="curve"/>
      <point x="401" y="125" type="line"/>
      <point x="379" y="151"/>
      <point x="342" y="177"/>
      <point x="299" y="177" type="curve" smooth="yes"/>
      <point x="219" y="177"/>
      <point x="173" y="118"/>
      <point x="173" y="52" type="curve" smooth="yes"/>
      <point x="173" y="-22"/>
      <point x="235" y="-101"/>
      <point x="360" y="-143" type="curve"/>
    </contour>
    <contour>
      <point x="380" y="2" type="line"/>
      <point x="430" y="83"/>
      <point x="460" y="116"/>
      <point x="502" y="116" type="curve" smooth="yes"/>
      <point x="514" y="116"/>
      <point x="525" y="114"/>
      <point x="535" y="108" type="curve"/>
      <point x="533" y="142" type="line"/>
      <point x="511" y="159"/>
      <point x="492" y="165"/>
      <point x="471" y="165" type="curve" smooth="yes"/>
      <point x="413" y="165"/>
      <point x="363" y="113"/>
      <point x="319" y="32" type="curve"/>
    </contour>
    <contour>
      <point x="730" y="545" type="line"/>
      <point x="732" y="555" type="line"/>
      <point x="701" y="620" type="line"/>
      <point x="33" y="620" type="line"/>
      <point x="31" y="610" type="line"/>
      <point x="62" y="545" type="line"/>
    </contour>
    <contour>
      <point x="162" y="234" type="line"/>
      <point x="149" y="248"/>
      <point x="141" y="273"/>
      <point x="141" y="296" type="curve" smooth="yes"/>
      <point x="141" y="357"/>
      <point x="191" y="385"/>
      <point x="278" y="385" type="curve" smooth="yes"/>
      <point x="468" y="385" type="line"/>
      <point x="482" y="393" type="line"/>
      <point x="492" y="445"/>
      <point x="507" y="527"/>
      <point x="517" y="581" type="curve"/>
      <point x="436" y="581" type="line"/>
      <point x="412" y="460" type="line"/>
      <point x="269" y="460" type="line" smooth="yes"/>
      <point x="130" y="460"/>
      <point x="73" y="409"/>
      <point x="73" y="325" type="curve" smooth="yes"/>
      <point x="73" y="281"/>
      <point x="94" y="229"/>
      <point x="122" y="200" type="curve"/>
    </contour>
  </outline>
  <guideline angle="72.693" x="462" y="0"/>
</glyph>
<glyph name="dHMYa" format="2">
  <advance width="1072"/>
  <outline>
    <contour>
      <point x="647" y="197" type="line"/>
      <point x="629" y="171" type="line"/>
      <point x="349" y="171" type="line" smooth="yes"/>
      <point x="327" y="171"/>
      <point x="318" y="157"/>
      <point x="318" y="141" type="curve" smooth="yes"/>
      <point x="318" y="92"/>
      <point x="386" y="12"/>
      <point x="422" y="12" type="curve" smooth="yes"/>
      <point x="437" y="12"/>
      <point x="447" y="20"/>
      <point x="450" y="37" type="curve" smooth="yes"/>
      <point x="468" y="130" type="line" smooth="yes"/>
      <point x="470" y="138"/>
      <point x="470" y="147"/>
      <point x="470" y="157" type="curve" smooth="yes"/>
      <point x="470" y="223"/>
      <point x="430" y="304"/>
      <point x="314" y="304" type="curve" smooth="yes"/>
      <point x="190" y="304"/>
      <point x="65" y="209"/>
      <point x="65" y="90" type="curve" smooth="yes"/>
      <point x="65" y="-6"/>
      <point x="141" y="-110"/>
      <point x="349" y="-164" type="curve"/>
      <point x="366" y="-125" type="line"/>
      <point x="192" y="-77"/>
      <point x="144" y="4"/>
      <point x="144" y="69" type="curve" smooth="yes"/>
      <point x="144" y="153"/>
      <point x="238" y="246"/>
      <point x="337" y="246" type="curve" smooth="yes"/>
      <point x="387" y="246"/>
      <point x="410" y="218"/>
      <point x="410" y="187" type="curve" smooth="yes"/>
      <point x="410" y="180"/>
      <point x="410" y="172"/>
      <point x="408" y="164" type="curve" smooth="yes"/>
      <point x="402" y="137"/>
      <point x="398" y="121"/>
      <point x="394" y="106" type="curve"/>
      <point x="447" y="106" type="line"/>
      <point x="730" y="106" type="line"/>
    </contour>
    <contour>
      <point x="1157" y="545" type="line"/>
      <point x="1159" y="555" type="line"/>
      <point x="1128" y="620" type="line"/>
      <point x="34" y="620" type="line"/>
      <point x="32" y="610" type="line"/>
      <point x="63" y="545" type="line"/>
    </contour>
    <contour>
      <point x="934" y="-10" type="line"/>
      <point x="1047" y="581" type="line"/>
      <point x="963" y="581" type="line"/>
      <point x="857" y="52" type="line"/>
      <point x="924" y="-10" type="line"/>
    </contour>
    <contour>
      <point x="729" y="106" type="curve" smooth="yes"/>
      <point x="803" y="106"/>
      <point x="835" y="115"/>
      <point x="874" y="139" type="curve"/>
      <point x="892" y="139" type="line"/>
      <point x="912" y="250" type="line"/>
      <point x="843" y="199"/>
      <point x="781" y="169"/>
      <point x="734" y="169" type="curve" smooth="yes"/>
      <point x="672" y="169"/>
      <point x="632" y="221"/>
      <point x="632" y="284" type="curve" smooth="yes"/>
      <point x="632" y="291"/>
      <point x="632" y="295"/>
      <point x="633" y="303" type="curve"/>
      <point x="753" y="331"/>
      <point x="796" y="376"/>
      <point x="796" y="439" type="curve" smooth="yes"/>
      <point x="796" y="470"/>
      <point x="784" y="514"/>
      <point x="765" y="562" type="curve"/>
      <point x="708" y="563" type="line"/>
      <point x="724" y="528"/>
      <point x="731" y="496"/>
      <point x="731" y="476" type="curve" smooth="yes"/>
      <point x="731" y="424"/>
      <point x="679" y="393"/>
      <point x="560" y="366" type="curve"/>
      <point x="554" y="189"/>
      <point x="691" y="106"/>
    </contour>
    <contour>
      <point x="153" y="234" type="line"/>
      <point x="140" y="248"/>
      <point x="132" y="273"/>
      <point x="132" y="296" type="curve" smooth="yes"/>
      <point x="132" y="357"/>
      <point x="182" y="385"/>
      <point x="269" y="385" type="curve" smooth="yes"/>
      <point x="459" y="385" type="line"/>
      <point x="473" y="393" type="line"/>
      <point x="483" y="445"/>
      <point x="498" y="527"/>
      <point x="508" y="581" type="curve"/>
      <point x="427" y="581" type="line"/>
      <point x="403" y="460" type="line"/>
      <point x="260" y="460" type="line" smooth="yes"/>
      <point x="121" y="460"/>
      <point x="64" y="409"/>
      <point x="64" y="325" type="curve" smooth="yes"/>
      <point x="64" y="281"/>
      <point x="85" y="229"/>
      <point x="113" y="200" type="curve"/>
    </contour>
  </outline>
</glyph>
<glyph name="dHNna" format="2">
  <advance width="599"/>
  <outline>
    <contour>
      <point x="317" y="-158" type="line"/>
      <point x="168" y="-112"/>
      <point x="118" y="-31"/>
      <point x="118" y="48" type="curve" smooth="yes"/>
      <point x="118" y="169"/>
      <point x="237" y="245"/>
      <point x="345" y="245" type="curve" smooth="yes"/>
      <point x="436" y="245"/>
      <point x="469" y="191"/>
      <point x="469" y="126" type="curve" smooth="yes"/>
      <point x="469" y="62"/>
      <point x="451" y="16"/>
      <point x="431" y="-61" type="curve"/>
      <point x="492" y="-117" type="line"/>
      <point x="499" y="-117" type="line"/>
      <point x="533" y="66" type="line" smooth="yes"/>
      <point x="536" y="82"/>
      <point x="537" y="98"/>
      <point x="537" y="110" type="curve" smooth="yes"/>
      <point x="537" y="229"/>
      <point x="443" y="300"/>
      <point x="319" y="300" type="curve" smooth="yes"/>
      <point x="178" y="300"/>
      <point x="41" y="208"/>
      <point x="41" y="70" type="curve" smooth="yes"/>
      <point x="41" y="-37"/>
      <point x="123" y="-137"/>
      <point x="299" y="-197" type="curve"/>
    </contour>
    <contour>
      <point x="303" y="-31" type="curve" smooth="yes"/>
      <point x="365" y="-31"/>
      <point x="394" y="11"/>
      <point x="405" y="68" type="curve" smooth="yes"/>
      <point x="413" y="110"/>
      <point x="419" y="146"/>
      <point x="441" y="266" type="curve"/>
      <point x="375" y="276" type="line"/>
      <point x="335" y="71" type="line" smooth="yes"/>
      <point x="328" y="36"/>
      <point x="308" y="23"/>
      <point x="283" y="23" type="curve" smooth="yes"/>
      <point x="264" y="23"/>
      <point x="254" y="33"/>
      <point x="254" y="54" type="curve" smooth="yes"/>
      <point x="254" y="59"/>
      <point x="255" y="67"/>
      <point x="256" y="72" type="curve" smooth="yes"/>
      <point x="296" y="282" type="line"/>
      <point x="222" y="250" type="line"/>
      <point x="211" y="191"/>
      <point x="190" y="91"/>
      <point x="190" y="82" type="curve" smooth="yes"/>
      <point x="190" y="38"/>
      <point x="243" y="-31"/>
    </contour>
    <contour>
      <point x="157" y="234" type="line"/>
      <point x="144" y="248"/>
      <point x="136" y="273"/>
      <point x="136" y="296" type="curve" smooth="yes"/>
      <point x="136" y="357"/>
      <point x="186" y="385"/>
      <point x="275" y="385" type="curve" smooth="yes"/>
      <point x="465" y="385" type="line"/>
      <point x="479" y="393" type="line"/>
      <point x="489" y="445"/>
      <point x="504" y="527"/>
      <point x="514" y="581" type="curve"/>
      <point x="433" y="581" type="line"/>
      <point x="409" y="460" type="line"/>
      <point x="266" y="460" type="line" smooth="yes"/>
      <point x="125" y="460"/>
      <point x="68" y="409"/>
      <point x="68" y="325" type="curve" smooth="yes"/>
      <point x="68" y="281"/>
      <point x="89" y="229"/>
      <point x="117" y="200" type="curve"/>
    </contour>
    <contour>
      <point x="684" y="545" type="line"/>
      <point x="685" y="555" type="line"/>
      <point x="654" y="620" type="line"/>
      <point x="33" y="620" type="line"/>
      <point x="31" y="610" type="line"/>
      <point x="63" y="545" type="line"/>
    </contour>
  </outline>
</glyph>
<glyph name="dHYa" format="2">
  <advance width="769"/>
  <outline>
    <contour>
      <point x="357" y="-129" type="line"/>
      <point x="193" y="-84"/>
      <point x="143" y="9"/>
      <point x="143" y="76" type="curve" smooth="yes"/>
      <point x="143" y="170"/>
      <point x="245" y="261"/>
      <point x="347" y="261" type="curve" smooth="yes"/>
      <point x="380" y="261"/>
      <point x="418" y="250"/>
      <point x="418" y="220" type="curve" smooth="yes"/>
      <point x="418" y="176"/>
      <point x="343" y="146"/>
      <point x="268" y="126" type="curve"/>
      <point x="276" y="34"/>
      <point x="346" y="-51"/>
      <point x="439" y="-51" type="curve" smooth="yes"/>
      <point x="474" y="-51"/>
      <point x="508" y="-41"/>
      <point x="538" y="-21" type="curve"/>
      <point x="555" y="-29" type="line"/>
      <point x="578" y="88" type="line"/>
      <point x="513" y="38"/>
      <point x="466" y="11"/>
      <point x="415" y="11" type="curve" smooth="yes"/>
      <point x="375" y="11"/>
      <point x="346" y="33"/>
      <point x="341" y="65" type="curve"/>
      <point x="440" y="97"/>
      <point x="482" y="138"/>
      <point x="482" y="194" type="curve" smooth="yes"/>
      <point x="482" y="252"/>
      <point x="422" y="319"/>
      <point x="326" y="319" type="curve" smooth="yes"/>
      <point x="196" y="319"/>
      <point x="64" y="219"/>
      <point x="64" y="89" type="curve" smooth="yes"/>
      <point x="64" y="-7"/>
      <point x="142" y="-115"/>
      <point x="340" y="-167" type="curve"/>
    </contour>
    <contour>
      <point x="605" y="-147" type="line"/>
      <point x="746" y="591" type="line"/>
      <point x="662" y="591" type="line"/>
      <point x="527" y="-85" type="line"/>
      <point x="595" y="-147" type="line"/>
    </contour>
    <contour>
      <point x="854" y="545" type="line"/>
      <point x="856" y="555" type="line"/>
      <point x="825" y="620" type="line"/>
      <point x="34" y="620" type="line"/>
      <point x="32" y="610" type="line"/>
      <point x="63" y="545" type="line"/>
    </contour>
    <contour>
      <point x="153" y="234" type="line"/>
      <point x="140" y="248"/>
      <point x="132" y="273"/>
      <point x="132" y="296" type="curve" smooth="yes"/>
      <point x="132" y="357"/>
      <point x="182" y="385"/>
      <point x="269" y="385" type="curve" smooth="yes"/>
      <point x="459" y="385" type="line"/>
      <point x="473" y="393" type="line"/>
      <point x="483" y="445"/>
      <point x="498" y="527"/>
      <point x="508" y="581" type="curve"/>
      <point x="427" y="581" type="line"/>
      <point x="403" y="460" type="line"/>
      <point x="260" y="460" type="line" smooth="yes"/>
      <point x="121" y="460"/>
      <point x="64" y="409"/>
      <point x="64" y="325" type="curve" smooth="yes"/>
      <point x="64" y="281"/>
      <point x="85" y="229"/>
      <point x="113" y="200" type="curve"/>
    </contour>
  </outline>
</glyph>
<glyph name="dHa_dSignU" format="2">
  <advance width="532"/>
  <outline>
    <contour>
      <point x="170" y="216" type="line"/>
      <point x="143" y="237"/>
      <point x="131" y="267"/>
      <point x="131" y="296" type="curve" smooth="yes"/>
      <point x="131" y="355"/>
      <point x="184" y="385"/>
      <point x="263" y="385" type="curve" smooth="yes"/>
      <point x="461" y="385" type="line"/>
      <point x="474" y="393" type="line"/>
      <point x="483" y="440"/>
      <point x="493" y="495"/>
      <point x="511" y="591" type="curve"/>
      <point x="430" y="591" type="line"/>
      <point x="404" y="460" type="line"/>
      <point x="258" y="460" type="line" smooth="yes"/>
      <point x="121" y="460"/>
      <point x="64" y="411"/>
      <point x="64" y="328" type="curve" smooth="yes"/>
      <point x="64" y="278"/>
      <point x="95" y="212"/>
      <point x="136" y="183" type="curve"/>
    </contour>
    <contour>
      <point x="279" y="-302" type="curve" smooth="yes"/>
      <point x="357" y="-302"/>
      <point x="420" y="-256"/>
      <point x="420" y="-181" type="curve" smooth="yes"/>
      <point x="420" y="-108"/>
      <point x="367" y="-56"/>
      <point x="281" y="-56" type="curve" smooth="yes"/>
      <point x="262" y="-56"/>
      <point x="212" y="-78"/>
      <point x="184" y="-100" type="curve"/>
      <point x="226" y="-164" type="line"/>
      <point x="252" y="-141"/>
      <point x="280" y="-119"/>
      <point x="320" y="-119" type="curve" smooth="yes"/>
      <point x="340" y="-119"/>
      <point x="366" y="-127"/>
      <point x="366" y="-160" type="curve" smooth="yes"/>
      <point x="366" y="-196"/>
      <point x="321" y="-236"/>
      <point x="250" y="-236" type="curve" smooth="yes"/>
      <point x="186" y="-236"/>
      <point x="122" y="-205"/>
      <point x="46" y="-77" type="curve"/>
      <point x="39" y="-77" type="line"/>
      <point x="1" y="-114" type="line"/>
      <point x="39" y="-175"/>
      <point x="157" y="-302"/>
    </contour>
    <contour>
      <point x="335" y="-64" type="line"/>
      <point x="197" y="-40"/>
      <point x="147" y="24"/>
      <point x="147" y="85" type="curve" smooth="yes"/>
      <point x="147" y="149"/>
      <point x="226" y="239"/>
      <point x="337" y="239" type="curve" smooth="yes"/>
      <point x="369" y="239"/>
      <point x="406" y="225"/>
      <point x="406" y="187" type="curve" smooth="yes"/>
      <point x="406" y="142"/>
      <point x="353" y="111"/>
      <point x="302" y="91" type="curve"/>
      <point x="337" y="16" type="line"/>
      <point x="423" y="49"/>
      <point x="469" y="100"/>
      <point x="469" y="170" type="curve" smooth="yes"/>
      <point x="469" y="224"/>
      <point x="424" y="297"/>
      <point x="310" y="297" type="curve" smooth="yes"/>
      <point x="187" y="297"/>
      <point x="68" y="206"/>
      <point x="68" y="108" type="curve" smooth="yes"/>
      <point x="68" y="28"/>
      <point x="117" y="-40"/>
      <point x="246" y="-84" type="curve"/>
    </contour>
    <contour>
      <point x="617" y="545" type="line"/>
      <point x="619" y="555" type="line"/>
      <point x="587" y="620" type="line"/>
      <point x="33" y="620" type="line"/>
      <point x="32" y="610" type="line"/>
      <point x="63" y="545" type="line"/>
    </contour>
  </outline>
</glyph>
<glyph name="dJJa" format="2">
  <advance width="1046"/>
  <outline>
    <contour>
      <point x="308" y="85" type="curve" smooth="yes"/>
      <point x="376" y="85"/>
      <point x="435" y="119"/>
      <point x="454" y="197" type="curve"/>
      <point x="386" y="371" type="line"/>
      <point x="311" y="361" type="line"/>
      <point x="361" y="336"/>
      <point x="386" y="293"/>
      <point x="386" y="253" type="curve" smooth="yes"/>
      <point x="386" y="206"/>
      <point x="348" y="166"/>
      <point x="290" y="166" type="curve" smooth="yes"/>
      <point x="193" y="166"/>
      <point x="135" y="265"/>
      <point x="94" y="411" type="curve"/>
      <point x="53" y="394" type="line"/>
      <point x="96" y="235"/>
      <point x="164" y="85"/>
    </contour>
    <contour>
      <point x="622" y="85" type="curve" smooth="yes"/>
      <point x="697" y="85"/>
      <point x="769" y="129"/>
      <point x="769" y="222" type="curve" smooth="yes"/>
      <point x="769" y="271"/>
      <point x="744" y="318"/>
      <point x="699" y="371" type="curve"/>
      <point x="612" y="364" type="line"/>
      <point x="669" y="338"/>
      <point x="697" y="298"/>
      <point x="697" y="251" type="curve" smooth="yes"/>
      <point x="697" y="202"/>
      <point x="659" y="166"/>
      <point x="600" y="166" type="curve" smooth="yes"/>
      <point x="506" y="166"/>
      <point x="441" y="256"/>
      <point x="395" y="393" type="curve"/>
      <point x="364" y="371" type="line"/>
      <point x="437" y="124"/>
      <point x="541" y="85"/>
    </contour>
    <contour>
      <point x="931" y="355" type="line"/>
      <point x="946" y="430" type="line"/>
      <point x="287" y="430" type="line"/>
      <point x="285" y="419" type="line"/>
      <point x="311" y="361" type="line"/>
      <point x="398" y="355" type="line"/>
    </contour>
    <contour>
      <point x="1131" y="545" type="line"/>
      <point x="1133" y="555" type="line"/>
      <point x="1102" y="620" type="line"/>
      <point x="34" y="620" type="line"/>
      <point x="32" y="610" type="line"/>
      <point x="63" y="545" type="line"/>
    </contour>
    <contour>
      <point x="908" y="-10" type="line"/>
      <point x="1021" y="581" type="line"/>
      <point x="937" y="581" type="line"/>
      <point x="831" y="52" type="line"/>
      <point x="898" y="-10" type="line"/>
    </contour>
  </outline>
</glyph>
<glyph name="dJRa" format="2">
  <advance width="765"/>
  <outline>
    <contour>
      <point x="663" y="385" type="line"/>
      <point x="678" y="460" type="line"/>
      <point x="291" y="460" type="line"/>
      <point x="289" y="449" type="line"/>
      <point x="314" y="391" type="line"/>
      <point x="393" y="385" type="line"/>
    </contour>
    <contour>
      <point x="622" y="-40" type="line"/>
      <point x="740" y="581" type="line"/>
      <point x="656" y="581" type="line"/>
      <point x="544" y="22" type="line"/>
      <point x="612" y="-40" type="line"/>
    </contour>
    <contour>
      <point x="850" y="545" type="line"/>
      <point x="852" y="555" type="line"/>
      <point x="821" y="620" type="line"/>
      <point x="34" y="620" type="line"/>
      <point x="32" y="610" type="line"/>
      <point x="63" y="545" type="line"/>
    </contour>
    <contour>
      <point x="603" y="151" type="line"/>
      <point x="623" y="260" type="line"/>
      <point x="286" y="9" type="line"/>
      <point x="343" y="-47" type="line"/>
    </contour>
    <contour>
      <point x="314" y="123" type="curve" smooth="yes"/>
      <point x="392" y="123"/>
      <point x="464" y="169"/>
      <point x="464" y="252" type="curve" smooth="yes"/>
      <point x="464" y="310"/>
      <point x="432" y="356"/>
      <point x="390" y="409" type="curve"/>
      <point x="314" y="391" type="line"/>
      <point x="367" y="366"/>
      <point x="392" y="329"/>
      <point x="392" y="296" type="curve" smooth="yes"/>
      <point x="392" y="242"/>
      <point x="349" y="204"/>
      <point x="291" y="204" type="curve" smooth="yes"/>
      <point x="199" y="204"/>
      <point x="142" y="300"/>
      <point x="101" y="446" type="curve"/>
      <point x="60" y="429" type="line"/>
      <point x="103" y="270"/>
      <point x="173" y="123"/>
    </contour>
  </outline>
</glyph>
<glyph name="dK.half" format="2">
  <advance width="572"/>
  <outline>
    <contour>
      <point x="435" y="591" type="line"/>
      <point x="326" y="54" type="line"/>
      <point x="393" y="-10" type="line"/>
      <point x="403" y="-10" type="line"/>
      <point x="517" y="591" type="line"/>
    </contour>
    <contour>
      <point x="208" y="138" type="curve" smooth="yes"/>
      <point x="268" y="138"/>
      <point x="326" y="174"/>
      <point x="409" y="229" type="curve" smooth="yes"/>
      <point x="450" y="256"/>
      <point x="556" y="338"/>
      <point x="615" y="338" type="curve" smooth="yes"/>
      <point x="625" y="338"/>
      <point x="638" y="336"/>
      <point x="648" y="329" type="curve"/>
      <point x="675" y="367" type="line"/>
      <point x="650" y="396"/>
      <point x="627" y="412"/>
      <point x="596" y="412" type="curve" smooth="yes"/>
      <point x="550" y="412"/>
      <point x="501" y="381"/>
      <point x="432" y="335" type="curve" smooth="yes"/>
      <point x="337" y="272"/>
      <point x="242" y="202"/>
      <point x="178" y="202" type="curve" smooth="yes"/>
      <point x="144" y="202"/>
      <point x="120" y="221"/>
      <point x="120" y="261" type="curve" smooth="yes"/>
      <point x="120" y="336"/>
      <point x="191" y="378"/>
      <point x="254" y="378" type="curve" smooth="yes"/>
      <point x="312" y="378"/>
      <point x="358" y="342"/>
      <point x="385" y="301" type="curve"/>
      <point x="395" y="351" type="line"/>
      <point x="367" y="399"/>
      <point x="306" y="455"/>
      <point x="232" y="455" type="curve" smooth="yes"/>
      <point x="139" y="455"/>
      <point x="55" y="393"/>
      <point x="55" y="303" type="curve" smooth="yes"/>
      <point x="55" y="215"/>
      <point x="123" y="138"/>
    </contour>
    <contour>
      <point x="699" y="545" type="line"/>
      <point x="701" y="555" type="line"/>
      <point x="670" y="620" type="line"/>
      <point x="34" y="620" type="line"/>
      <point x="32" y="610" type="line"/>
      <point x="63" y="545" type="line"/>
    </contour>
  </outline>
  <guideline angle="90" x="542" y="0"/>
  <guideline angle="90" x="656" y="0"/>
</glyph>
<glyph name="dKJa" format="2">
  <advance width="1298"/>
  <outline>
    <contour>
      <point x="403" y="-10" type="line"/>
      <point x="517" y="591" type="line"/>
      <point x="435" y="591" type="line"/>
      <point x="326" y="54" type="line"/>
      <point x="393" y="-10" type="line"/>
    </contour>
    <contour>
      <point x="874" y="85" type="curve" smooth="yes"/>
      <point x="959" y="85"/>
      <point x="1023" y="136"/>
      <point x="1023" y="224" type="curve" smooth="yes"/>
      <point x="1023" y="272"/>
      <point x="1005" y="314"/>
      <point x="948" y="371" type="curve"/>
      <point x="872" y="361" type="line"/>
      <point x="923" y="336"/>
      <point x="949" y="297"/>
      <point x="949" y="259" type="curve" smooth="yes"/>
      <point x="949" y="210"/>
      <point x="915" y="166"/>
      <point x="854" y="166" type="curve" smooth="yes"/>
      <point x="765" y="166"/>
      <point x="682" y="270"/>
      <point x="650" y="455" type="curve"/>
      <point x="609" y="438" type="line"/>
      <point x="636" y="263"/>
      <point x="722" y="85"/>
    </contour>
    <contour>
      <point x="1383" y="545" type="line"/>
      <point x="1385" y="555" type="line"/>
      <point x="1354" y="620" type="line"/>
      <point x="34" y="620" type="line"/>
      <point x="32" y="610" type="line"/>
      <point x="63" y="545" type="line"/>
    </contour>
    <contour>
      <point x="1180" y="355" type="line"/>
      <point x="1195" y="430" type="line"/>
      <point x="848" y="430" type="line"/>
      <point x="846" y="419" type="line"/>
      <point x="872" y="361" type="line"/>
      <point x="952" y="355" type="line"/>
    </contour>
    <contour>
      <point x="1160" y="-10" type="line"/>
      <point x="1275" y="581" type="line"/>
      <point x="1189" y="581" type="line"/>
      <point x="1081" y="42" type="line"/>
      <point x="1150" y="-10" type="line"/>
    </contour>
    <contour>
      <point x="207" y="138" type="curve" smooth="yes"/>
      <point x="249" y="138"/>
      <point x="291" y="147"/>
      <point x="416" y="229" type="curve" smooth="yes"/>
      <point x="515" y="294"/>
      <point x="569" y="325"/>
      <point x="608" y="325" type="curve" smooth="yes"/>
      <point x="622" y="325"/>
      <point x="633" y="322"/>
      <point x="646" y="311" type="curve"/>
      <point x="632" y="378" type="line"/>
      <point x="616" y="388"/>
      <point x="601" y="397"/>
      <point x="575" y="397" type="curve" smooth="yes"/>
      <point x="544" y="397"/>
      <point x="508" y="379"/>
      <point x="419" y="324" type="curve" smooth="yes"/>
      <point x="264" y="227"/>
      <point x="226" y="202"/>
      <point x="186" y="202" type="curve" smooth="yes"/>
      <point x="151" y="202"/>
      <point x="120" y="222"/>
      <point x="120" y="266" type="curve" smooth="yes"/>
      <point x="120" y="336"/>
      <point x="175" y="378"/>
      <point x="237" y="378" type="curve" smooth="yes"/>
      <point x="293" y="378"/>
      <point x="357" y="345"/>
      <point x="390" y="293" type="curve"/>
      <point x="402" y="343" type="line"/>
      <point x="370" y="403"/>
      <point x="294" y="456"/>
      <point x="217" y="456" type="curve" smooth="yes"/>
      <point x="140" y="456"/>
      <point x="55" y="405"/>
      <point x="55" y="299" type="curve" smooth="yes"/>
      <point x="55" y="223"/>
      <point x="109" y="138"/>
    </contour>
  </outline>
</glyph>
<glyph name="dKMa" format="2">
  <advance width="1154"/>
  <outline>
    <contour>
      <point x="207" y="138" type="curve" smooth="yes"/>
      <point x="270" y="138"/>
      <point x="326" y="173"/>
      <point x="404" y="227" type="curve" smooth="yes"/>
      <point x="502" y="295"/>
      <point x="561" y="343"/>
      <point x="603" y="343" type="curve" smooth="yes"/>
      <point x="633" y="343"/>
      <point x="657" y="331"/>
      <point x="674" y="298" type="curve"/>
      <point x="716" y="305" type="line"/>
      <point x="683" y="397"/>
      <point x="637" y="421"/>
      <point x="594" y="421" type="curve" smooth="yes"/>
      <point x="559" y="421"/>
      <point x="507" y="391"/>
      <point x="429" y="335" type="curve" smooth="yes"/>
      <point x="280" y="228"/>
      <point x="223" y="202"/>
      <point x="180" y="202" type="curve" smooth="yes"/>
      <point x="144" y="202"/>
      <point x="120" y="226"/>
      <point x="120" y="264" type="curve" smooth="yes"/>
      <point x="120" y="340"/>
      <point x="178" y="378"/>
      <point x="236" y="378" type="curve" smooth="yes"/>
      <point x="299" y="378"/>
      <point x="356" y="342"/>
      <point x="385" y="301" type="curve"/>
      <point x="395" y="351" type="line"/>
      <point x="363" y="402"/>
      <point x="294" y="455"/>
      <point x="218" y="455" type="curve" smooth="yes"/>
      <point x="129" y="455"/>
      <point x="55" y="399"/>
      <point x="55" y="301" type="curve" smooth="yes"/>
      <point x="55" y="223"/>
      <point x="110" y="138"/>
    </contour>
    <contour>
      <point x="403" y="-10" type="line"/>
      <point x="515" y="578" type="line"/>
      <point x="433" y="578" type="line"/>
      <point x="326" y="54" type="line"/>
      <point x="393" y="-10" type="line"/>
    </contour>
    <contour>
      <point x="622" y="310" type="line" smooth="yes"/>
      <point x="601" y="310"/>
      <point x="592" y="296"/>
      <point x="592" y="281" type="curve" smooth="yes"/>
      <point x="592" y="233"/>
      <point x="666" y="134"/>
      <point x="713" y="134" type="curve" smooth="yes"/>
      <point x="728" y="134"/>
      <point x="738" y="142"/>
      <point x="741" y="159" type="curve" smooth="yes"/>
      <point x="822" y="578" type="line"/>
      <point x="739" y="578" type="line"/>
      <point x="672" y="235" type="line"/>
      <point x="1013" y="235" type="line"/>
      <point x="1028" y="310" type="line"/>
    </contour>
    <contour>
      <point x="1239" y="545" type="line"/>
      <point x="1241" y="555" type="line"/>
      <point x="1210" y="620" type="line"/>
      <point x="34" y="620" type="line"/>
      <point x="32" y="610" type="line"/>
      <point x="63" y="545" type="line"/>
    </contour>
    <contour>
      <point x="1016" y="-10" type="line"/>
      <point x="1129" y="578" type="line"/>
      <point x="1045" y="578" type="line"/>
      <point x="940" y="52" type="line"/>
      <point x="1006" y="-10" type="line"/>
    </contour>
  </outline>
</glyph>
<glyph name="dKSs.half" format="2">
  <advance width="461"/>
  <outline>
    <contour>
      <point x="390" y="-126" type="line"/>
      <point x="444" y="-96" type="line"/>
      <point x="324" y="138" type="line"/>
      <point x="309" y="123" type="line"/>
      <point x="282" y="106"/>
      <point x="254" y="98"/>
      <point x="227" y="98" type="curve" smooth="yes"/>
      <point x="175" y="98"/>
      <point x="142" y="127"/>
      <point x="142" y="181" type="curve" smooth="yes"/>
      <point x="142" y="262"/>
      <point x="220" y="288"/>
      <point x="311" y="338" type="curve" smooth="yes"/>
      <point x="395" y="384"/>
      <point x="429" y="420"/>
      <point x="429" y="481" type="curve" smooth="yes"/>
      <point x="429" y="567"/>
      <point x="343" y="633"/>
      <point x="271" y="633" type="curve" smooth="yes"/>
      <point x="182" y="633"/>
      <point x="131" y="576"/>
      <point x="131" y="507" type="curve" smooth="yes"/>
      <point x="131" y="371"/>
      <point x="328" y="288"/>
      <point x="470" y="288" type="curve" smooth="yes"/>
      <point x="501" y="288"/>
      <point x="537" y="292"/>
      <point x="574" y="306" type="curve"/>
      <point x="581" y="395" type="line"/>
      <point x="524" y="366"/>
      <point x="478" y="351"/>
      <point x="422" y="351" type="curve" smooth="yes"/>
      <point x="322" y="351"/>
      <point x="202" y="396"/>
      <point x="202" y="474" type="curve" smooth="yes"/>
      <point x="202" y="523"/>
      <point x="250" y="567"/>
      <point x="306" y="567" type="curve" smooth="yes"/>
      <point x="344" y="567"/>
      <point x="367" y="546"/>
      <point x="367" y="510" type="curve" smooth="yes"/>
      <point x="367" y="453"/>
      <point x="309" y="424"/>
      <point x="231" y="382" type="curve" smooth="yes"/>
      <point x="139" y="333"/>
      <point x="67" y="299"/>
      <point x="67" y="214" type="curve" smooth="yes"/>
      <point x="67" y="131"/>
      <point x="150" y="31"/>
      <point x="270" y="31" type="curve" smooth="yes"/>
      <point x="368" y="31"/>
      <point x="427" y="93"/>
      <point x="427" y="134" type="curve" smooth="yes"/>
      <point x="427" y="181"/>
      <point x="355" y="222"/>
      <point x="313" y="222" type="curve" smooth="yes"/>
      <point x="291" y="222"/>
      <point x="281" y="211"/>
      <point x="281" y="184" type="curve" smooth="yes"/>
      <point x="281" y="151"/>
      <point x="296" y="104"/>
      <point x="308" y="72" type="curve" smooth="yes"/>
      <point x="380" y="-126" type="line"/>
    </contour>
    <contour>
      <point x="618" y="545" type="line"/>
      <point x="620" y="555" type="line"/>
      <point x="588" y="620" type="line"/>
      <point x="465" y="620" type="line"/>
      <point x="463" y="610" type="line"/>
      <point x="495" y="545" type="line"/>
    </contour>
  </outline>
</glyph>
<glyph name="dLJa" format="2">
  <advance width="1206"/>
  <outline>
    <contour>
      <point x="991" y="52" type="line"/>
      <point x="1058" y="-10" type="line"/>
      <point x="1068" y="-10" type="line"/>
      <point x="1181" y="581" type="line"/>
      <point x="1097" y="581" type="line"/>
    </contour>
    <contour>
      <point x="1291" y="545" type="line"/>
      <point x="1293" y="555" type="line"/>
      <point x="1262" y="620" type="line"/>
      <point x="34" y="620" type="line"/>
      <point x="32" y="610" type="line"/>
      <point x="63" y="545" type="line"/>
    </contour>
    <contour>
      <point x="860" y="355" type="line"/>
      <point x="1067" y="355" type="line"/>
      <point x="1083" y="430" type="line"/>
      <point x="756" y="430" type="line"/>
      <point x="754" y="419" type="line"/>
      <point x="780" y="361" type="line"/>
    </contour>
    <contour>
      <point x="783" y="85" type="curve" smooth="yes"/>
      <point x="868" y="85"/>
      <point x="932" y="136"/>
      <point x="932" y="224" type="curve" smooth="yes"/>
      <point x="932" y="272"/>
      <point x="914" y="314"/>
      <point x="857" y="371" type="curve"/>
      <point x="781" y="361" type="line"/>
      <point x="832" y="336"/>
      <point x="858" y="297"/>
      <point x="858" y="259" type="curve" smooth="yes"/>
      <point x="858" y="210"/>
      <point x="824" y="166"/>
      <point x="763" y="166" type="curve" smooth="yes"/>
      <point x="674" y="166"/>
      <point x="592" y="285"/>
      <point x="560" y="470" type="curve"/>
      <point x="518" y="453" type="line"/>
      <point x="545" y="278"/>
      <point x="631" y="85"/>
    </contour>
    <contour>
      <point x="457" y="428" type="curve" smooth="yes"/>
      <point x="379" y="428"/>
      <point x="313" y="354"/>
      <point x="264" y="270" type="curve"/>
      <point x="331" y="223" type="line"/>
      <point x="400" y="332"/>
      <point x="446" y="363"/>
      <point x="490" y="363" type="curve" smooth="yes"/>
      <point x="514" y="363"/>
      <point x="533" y="354"/>
      <point x="546" y="342" type="curve"/>
      <point x="537" y="396" type="line"/>
      <point x="508" y="420"/>
      <point x="479" y="428"/>
    </contour>
    <contour>
      <point x="353" y="369" type="line"/>
      <point x="325" y="411"/>
      <point x="281" y="454"/>
      <point x="214" y="454" type="curve" smooth="yes"/>
      <point x="123" y="454"/>
      <point x="55" y="375"/>
      <point x="55" y="276" type="curve" smooth="yes"/>
      <point x="55" y="178"/>
      <point x="115" y="95"/>
      <point x="203" y="-10" type="curve"/>
      <point x="213" y="-10" type="line"/>
      <point x="260" y="23" type="line"/>
      <point x="158" y="118"/>
      <point x="129" y="177"/>
      <point x="129" y="245" type="curve" smooth="yes"/>
      <point x="129" y="322"/>
      <point x="183" y="380"/>
      <point x="247" y="380" type="curve" smooth="yes"/>
      <point x="281" y="380"/>
      <point x="309" y="362"/>
      <point x="326" y="337" type="curve"/>
    </contour>
  </outline>
</glyph>
<glyph name="dMBhRa" format="2">
  <advance width="984"/>
  <outline>
    <component base="dBhRa" xOffset="258"/>
    <contour>
      <point x="454" y="545" type="line"/>
      <point x="456" y="555" type="line"/>
      <point x="455" y="620" type="line"/>
      <point x="34" y="620" type="line"/>
      <point x="32" y="610" type="line"/>
      <point x="63" y="545" type="line"/>
    </contour>
    <contour>
      <point x="177" y="151" type="curve" smooth="yes"/>
      <point x="190" y="151"/>
      <point x="200" y="158"/>
      <point x="203" y="175" type="curve" smooth="yes"/>
      <point x="282" y="591" type="line"/>
      <point x="199" y="591" type="line"/>
      <point x="132" y="248" type="line"/>
      <point x="501" y="248" type="line"/>
      <point x="487" y="323" type="line"/>
      <point x="94" y="323" type="line" smooth="yes"/>
      <point x="73" y="323"/>
      <point x="62" y="313"/>
      <point x="62" y="297" type="curve" smooth="yes"/>
      <point x="62" y="245"/>
      <point x="144" y="151"/>
    </contour>
  </outline>
</glyph>
<glyph name="dMDha" format="2">
  <advance width="974"/>
  <outline>
    <component base="dDha" xOffset="320"/>
    <contour>
      <point x="492" y="545" type="line"/>
      <point x="542" y="620" type="line"/>
      <point x="34" y="620" type="line"/>
      <point x="32" y="610" type="line"/>
      <point x="63" y="545" type="line"/>
    </contour>
    <contour>
      <point x="174" y="138" type="curve" smooth="yes"/>
      <point x="187" y="138"/>
      <point x="197" y="146"/>
      <point x="200" y="163" type="curve" smooth="yes"/>
      <point x="279" y="581" type="line"/>
      <point x="197" y="581" type="line"/>
      <point x="129" y="235" type="line"/>
      <point x="498" y="235" type="line"/>
      <point x="485" y="310" type="line"/>
      <point x="90" y="310" type="line" smooth="yes"/>
      <point x="69" y="310"/>
      <point x="59" y="300"/>
      <point x="59" y="284" type="curve" smooth="yes"/>
      <point x="59" y="232"/>
      <point x="141" y="138"/>
    </contour>
  </outline>
</glyph>
<glyph name="dMSa" format="2">
  <advance width="1011"/>
  <outline>
    <contour>
      <point x="1096" y="545" type="line"/>
      <point x="1098" y="555" type="line"/>
      <point x="1067" y="620" type="line"/>
      <point x="34" y="620" type="line"/>
      <point x="32" y="610" type="line"/>
      <point x="63" y="545" type="line"/>
    </contour>
    <contour>
      <point x="873" y="-10" type="line"/>
      <point x="986" y="581" type="line"/>
      <point x="902" y="581" type="line"/>
      <point x="796" y="52" type="line"/>
      <point x="863" y="-10" type="line"/>
    </contour>
    <contour>
      <point x="174" y="138" type="curve" smooth="yes"/>
      <point x="187" y="138"/>
      <point x="197" y="145"/>
      <point x="200" y="162" type="curve" smooth="yes"/>
      <point x="279" y="581" type="line"/>
      <point x="197" y="581" type="line"/>
      <point x="129" y="235" type="line"/>
      <point x="463" y="235" type="line"/>
      <point x="432" y="310" type="line"/>
      <point x="91" y="310" type="line" smooth="yes"/>
      <point x="70" y="310"/>
      <point x="59" y="300"/>
      <point x="59" y="284" type="curve" smooth="yes"/>
      <point x="59" y="232"/>
      <point x="141" y="138"/>
    </contour>
    <contour>
      <point x="596" y="-20" type="line"/>
      <point x="649" y="18" type="line"/>
      <point x="476" y="246" type="line"/>
      <point x="472" y="235" type="line"/>
      <point x="534" y="243"/>
      <point x="574" y="272"/>
      <point x="601" y="319" type="curve" smooth="yes"/>
      <point x="635" y="378"/>
      <point x="649" y="463"/>
      <point x="662" y="564" type="curve"/>
      <point x="580" y="564" type="line"/>
      <point x="577" y="543"/>
      <point x="575" y="523"/>
      <point x="567" y="482" type="curve" smooth="yes"/>
      <point x="560" y="446"/>
      <point x="548" y="391"/>
      <point x="533" y="358" type="curve"/>
      <point x="546" y="367" type="line"/>
      <point x="525" y="370"/>
      <point x="474" y="374"/>
      <point x="452" y="374" type="curve" smooth="yes"/>
      <point x="410" y="374"/>
      <point x="394" y="361"/>
      <point x="394" y="334" type="curve" smooth="yes"/>
      <point x="394" y="303"/>
      <point x="409" y="264"/>
      <point x="451" y="196" type="curve" smooth="yes"/>
      <point x="586" y="-20" type="line"/>
    </contour>
    <contour>
      <point x="743" y="219" type="curve" smooth="yes"/>
      <point x="787" y="219"/>
      <point x="813" y="229"/>
      <point x="848" y="245" type="curve"/>
      <point x="862" y="346" type="line"/>
      <point x="840" y="325"/>
      <point x="784" y="296"/>
      <point x="721" y="296" type="curve" smooth="yes"/>
      <point x="669" y="296"/>
      <point x="620" y="321"/>
      <point x="603" y="337" type="curve"/>
      <point x="573" y="307" type="line"/>
      <point x="641" y="236"/>
      <point x="696" y="219"/>
    </contour>
  </outline>
</glyph>
<glyph name="dN.half" format="2">
  <advance width="321"/>
  <outline>
    <contour>
      <point x="437" y="365" type="line"/>
      <point x="325" y="368"/>
      <point x="193" y="371"/>
      <point x="154" y="371" type="curve" smooth="yes"/>
      <point x="96" y="371"/>
      <point x="65" y="366"/>
      <point x="65" y="325" type="curve" smooth="yes"/>
      <point x="65" y="266"/>
      <point x="132" y="189"/>
      <point x="173" y="189" type="curve" smooth="yes"/>
      <point x="203" y="189"/>
      <point x="212" y="216"/>
      <point x="228" y="294" type="curve"/>
      <point x="423" y="294" type="line"/>
    </contour>
    <contour>
      <point x="475" y="545" type="line"/>
      <point x="477" y="555" type="line"/>
      <point x="446" y="620" type="line"/>
      <point x="34" y="620" type="line"/>
      <point x="32" y="610" type="line"/>
      <point x="63" y="545" type="line"/>
    </contour>
  </outline>
</glyph>
<glyph name="dNDda" format="2">
  <advance width="867"/>
  <outline>
    <contour>
      <point x="452" y="394" type="line"/>
      <point x="339" y="398"/>
      <point x="192" y="401"/>
      <point x="155" y="401" type="curve" smooth="yes"/>
      <point x="96" y="401"/>
      <point x="68" y="393"/>
      <point x="68" y="356" type="curve" smooth="yes"/>
      <point x="68" y="288"/>
      <point x="140" y="219"/>
      <point x="180" y="219" type="curve" smooth="yes"/>
      <point x="211" y="219"/>
      <point x="218" y="246"/>
      <point x="233" y="324" type="curve"/>
      <point x="444" y="324" type="line"/>
    </contour>
    <contour>
      <point x="952" y="545" type="line"/>
      <point x="954" y="555" type="line"/>
      <point x="923" y="620" type="line"/>
      <point x="34" y="620" type="line"/>
      <point x="32" y="610" type="line"/>
      <point x="63" y="545" type="line"/>
    </contour>
    <contour>
      <point x="616" y="7" type="curve" smooth="yes"/>
      <point x="732" y="7"/>
      <point x="807" y="70"/>
      <point x="807" y="156" type="curve" smooth="yes"/>
      <point x="807" y="228"/>
      <point x="747" y="298"/>
      <point x="696" y="298" type="curve" smooth="yes"/>
      <point x="658" y="298"/>
      <point x="555" y="273"/>
      <point x="532" y="273" type="curve" smooth="yes"/>
      <point x="511" y="273"/>
      <point x="491" y="293"/>
      <point x="491" y="326" type="curve" smooth="yes"/>
      <point x="491" y="366"/>
      <point x="517" y="385"/>
      <point x="573" y="385" type="curve" smooth="yes"/>
      <point x="776" y="385" type="line"/>
      <point x="790" y="393" type="line"/>
      <point x="800" y="445"/>
      <point x="813" y="517"/>
      <point x="823" y="571" type="curve"/>
      <point x="742" y="571" type="line"/>
      <point x="720" y="460" type="line"/>
      <point x="570" y="460" type="line" smooth="yes"/>
      <point x="468" y="460"/>
      <point x="425" y="419"/>
      <point x="425" y="359" type="curve" smooth="yes"/>
      <point x="425" y="280"/>
      <point x="491" y="199"/>
      <point x="551" y="199" type="curve" smooth="yes"/>
      <point x="585" y="199"/>
      <point x="675" y="223"/>
      <point x="714" y="223" type="curve" smooth="yes"/>
      <point x="735" y="223"/>
      <point x="747" y="209"/>
      <point x="747" y="191" type="curve" smooth="yes"/>
      <point x="747" y="159"/>
      <point x="716" y="82"/>
      <point x="592" y="82" type="curve" smooth="yes"/>
      <point x="453" y="82"/>
      <point x="393" y="175"/>
      <point x="363" y="272" type="curve"/>
      <point x="325" y="253" type="line"/>
      <point x="369" y="99"/>
      <point x="467" y="7"/>
    </contour>
  </outline>
</glyph>
<glyph name="dNNa" format="2">
  <advance width="591"/>
  <outline>
    <contour>
      <point x="233" y="33" type="curve" smooth="yes"/>
      <point x="249" y="33"/>
      <point x="260" y="40"/>
      <point x="260" y="69" type="curve" smooth="yes"/>
      <point x="260" y="79"/>
      <point x="258" y="100"/>
      <point x="254" y="136" type="curve"/>
      <point x="428" y="234" type="line"/>
      <point x="445" y="326" type="line"/>
      <point x="183" y="183" type="line" smooth="yes"/>
      <point x="131" y="154"/>
      <point x="114" y="144"/>
      <point x="114" y="123" type="curve" smooth="yes"/>
      <point x="114" y="82"/>
      <point x="199" y="33"/>
    </contour>
    <contour>
      <point x="190" y="284" type="curve" smooth="yes"/>
      <point x="217" y="284"/>
      <point x="219" y="306"/>
      <point x="221" y="335" type="curve" smooth="yes"/>
      <point x="224" y="378" type="line"/>
      <point x="303" y="382"/>
      <point x="382" y="347"/>
      <point x="444" y="251" type="curve"/>
      <point x="464" y="308" type="line"/>
      <point x="367" y="429"/>
      <point x="263" y="464"/>
      <point x="165" y="464" type="curve" smooth="yes"/>
      <point x="115" y="464"/>
      <point x="78" y="454"/>
      <point x="78" y="415" type="curve" smooth="yes"/>
      <point x="78" y="368"/>
      <point x="147" y="284"/>
    </contour>
    <contour>
      <point x="453" y="-15" type="line"/>
      <point x="564" y="571" type="line"/>
      <point x="480" y="571" type="line"/>
      <point x="375" y="47" type="line"/>
      <point x="443" y="-15" type="line"/>
    </contour>
    <contour>
      <point x="676" y="545" type="line"/>
      <point x="678" y="555" type="line"/>
      <point x="647" y="620" type="line"/>
      <point x="34" y="620" type="line"/>
      <point x="32" y="610" type="line"/>
      <point x="63" y="545" type="line"/>
    </contour>
  </outline>
</glyph>
<glyph name="dNa.post" format="2">
  <advance width="271"/>
  <outline>
    <contour>
      <point x="-89" y="-40" type="curve" smooth="yes"/>
      <point x="-65" y="-40"/>
      <point x="-52" y="-28"/>
      <point x="-52" y="-11" type="curve" smooth="yes"/>
      <point x="-52" y="1"/>
      <point x="-57" y="19"/>
      <point x="-70" y="64" type="curve"/>
      <point x="81" y="176" type="line"/>
      <point x="101" y="160" type="line"/>
      <point x="127" y="297" type="line"/>
      <point x="-140" y="106" type="line" smooth="yes"/>
      <point x="-190" y="70"/>
      <point x="-212" y="57"/>
      <point x="-212" y="36" type="curve" smooth="yes"/>
      <point x="-212" y="4"/>
      <point x="-127" y="-40"/>
    </contour>
    <contour>
      <point x="127" y="-45" type="line"/>
      <point x="246" y="581" type="line"/>
      <point x="162" y="581" type="line"/>
      <point x="89" y="222" type="line"/>
      <point x="91" y="216" type="line"/>
      <point x="49" y="17" type="line"/>
      <point x="117" y="-45" type="line"/>
    </contour>
    <contour>
      <point x="356" y="545" type="line"/>
      <point x="358" y="555" type="line"/>
      <point x="327" y="620" type="line"/>
      <point x="-38" y="620" type="line"/>
      <point x="-40" y="610" type="line"/>
      <point x="-9" y="545" type="line"/>
    </contour>
  </outline>
</glyph>
<glyph name="dNgGha" format="2">
  <advance width="620"/>
  <outline>
    <contour>
      <point x="313" y="80" type="curve" smooth="yes"/>
      <point x="442" y="80"/>
      <point x="490" y="139"/>
      <point x="490" y="202" type="curve" smooth="yes"/>
      <point x="490" y="268"/>
      <point x="427" y="335"/>
      <point x="378" y="335" type="curve" smooth="yes"/>
      <point x="346" y="335"/>
      <point x="254" y="313"/>
      <point x="230" y="313" type="curve" smooth="yes"/>
      <point x="212" y="313"/>
      <point x="195" y="331"/>
      <point x="195" y="357" type="curve" smooth="yes"/>
      <point x="195" y="395"/>
      <point x="221" y="410"/>
      <point x="269" y="410" type="curve" smooth="yes"/>
      <point x="460" y="410" type="line"/>
      <point x="474" y="418" type="line"/>
      <point x="484" y="469"/>
      <point x="494" y="523"/>
      <point x="505" y="583" type="curve"/>
      <point x="425" y="583" type="line"/>
      <point x="405" y="482" type="line"/>
      <point x="258" y="482" type="line" smooth="yes"/>
      <point x="164" y="482"/>
      <point x="130" y="447"/>
      <point x="130" y="388" type="curve" smooth="yes"/>
      <point x="130" y="319"/>
      <point x="203" y="243"/>
      <point x="261" y="243" type="curve" smooth="yes"/>
      <point x="295" y="243"/>
      <point x="364" y="264"/>
      <point x="400" y="264" type="curve" smooth="yes"/>
      <point x="419" y="264"/>
      <point x="428" y="255"/>
      <point x="428" y="237" type="curve" smooth="yes"/>
      <point x="428" y="201"/>
      <point x="399" y="152"/>
      <point x="295" y="152" type="curve" smooth="yes"/>
      <point x="169" y="152"/>
      <point x="117" y="210"/>
      <point x="79" y="305" type="curve"/>
      <point x="42" y="288" type="line"/>
      <point x="84" y="161"/>
      <point x="185" y="80"/>
    </contour>
    <contour>
      <point x="219" y="-208" type="curve" smooth="yes"/>
      <point x="252" y="-208"/>
      <point x="289" y="-198"/>
      <point x="315" y="-185" type="curve"/>
      <point x="338" y="-95" type="line"/>
      <point x="275" y="-137"/>
      <point x="228" y="-152"/>
      <point x="195" y="-152" type="curve" smooth="yes"/>
      <point x="158" y="-152"/>
      <point x="141" y="-132"/>
      <point x="141" y="-110" type="curve" smooth="yes"/>
      <point x="141" y="-75"/>
      <point x="179" y="-46"/>
      <point x="278" y="-42" type="curve"/>
      <point x="258" y="27" type="line"/>
      <point x="168" y="23"/>
      <point x="84" y="-2"/>
      <point x="84" y="-77" type="curve" smooth="yes"/>
      <point x="84" y="-131"/>
      <point x="129" y="-208"/>
    </contour>
    <contour>
      <point x="160" y="-4" type="line"/>
      <point x="140" y="13"/>
      <point x="134" y="39"/>
      <point x="134" y="55" type="curve" smooth="yes"/>
      <point x="134" y="82"/>
      <point x="151" y="110"/>
      <point x="187" y="118" type="curve"/>
      <point x="129" y="164" type="line"/>
      <point x="88" y="143"/>
      <point x="62" y="119"/>
      <point x="62" y="72" type="curve" smooth="yes"/>
      <point x="62" y="31"/>
      <point x="90" y="0"/>
      <point x="126" y="-26" type="curve"/>
    </contour>
    <contour>
      <point x="354" y="-305" type="line"/>
      <point x="441" y="149" type="line"/>
      <point x="363" y="118" type="line"/>
      <point x="289" y="-252" type="line"/>
      <point x="345" y="-305" type="line"/>
    </contour>
    <contour>
      <point x="625" y="354" type="line"/>
      <point x="564" y="424" type="line"/>
      <point x="486" y="356" type="line"/>
      <point x="547" y="286" type="line"/>
    </contour>
    <contour>
      <point x="705" y="545" type="line"/>
      <point x="706" y="555" type="line"/>
      <point x="675" y="620" type="line"/>
      <point x="33" y="620" type="line"/>
      <point x="31" y="610" type="line"/>
      <point x="63" y="545" type="line"/>
    </contour>
  </outline>
</glyph>
<glyph name="dNine.ss04sups" format="2">
  <advance width="456"/>
  <outline>
    <contour>
      <point x="392" y="196" type="line"/>
      <point x="443" y="220"/>
      <point x="474" y="242"/>
      <point x="474" y="295" type="curve" smooth="yes"/>
      <point x="474" y="352"/>
      <point x="424" y="407"/>
      <point x="377" y="407" type="curve" smooth="yes"/>
      <point x="345" y="407"/>
      <point x="303" y="383"/>
      <point x="262" y="383" type="curve" smooth="yes"/>
      <point x="235" y="383"/>
      <point x="212" y="393"/>
      <point x="212" y="423" type="curve" smooth="yes"/>
      <point x="212" y="461"/>
      <point x="246" y="501"/>
      <point x="406" y="502" type="curve"/>
      <point x="383" y="570" type="line"/>
      <point x="268" y="568"/>
      <point x="153" y="533"/>
      <point x="153" y="447" type="curve" smooth="yes"/>
      <point x="153" y="381"/>
      <point x="218" y="320"/>
      <point x="295" y="320" type="curve" smooth="yes"/>
      <point x="343" y="320"/>
      <point x="373" y="342"/>
      <point x="398" y="342" type="curve" smooth="yes"/>
      <point x="415" y="342"/>
      <point x="425" y="333"/>
      <point x="425" y="320" type="curve" smooth="yes"/>
      <point x="425" y="295"/>
      <point x="395" y="272"/>
      <point x="347" y="252" type="curve"/>
    </contour>
    <contour>
      <point x="262" y="541" type="line"/>
      <point x="243" y="553"/>
      <point x="228" y="570"/>
      <point x="228" y="591" type="curve" smooth="yes"/>
      <point x="228" y="637"/>
      <point x="285" y="648"/>
      <point x="327" y="648" type="curve" smooth="yes"/>
      <point x="362" y="648"/>
      <point x="391" y="645"/>
      <point x="408" y="641" type="curve"/>
      <point x="397" y="710" type="line"/>
      <point x="375" y="714"/>
      <point x="353" y="717"/>
      <point x="324" y="717" type="curve" smooth="yes"/>
      <point x="231" y="717"/>
      <point x="165" y="686"/>
      <point x="165" y="624" type="curve" smooth="yes"/>
      <point x="165" y="589"/>
      <point x="190" y="552"/>
      <point x="226" y="521" type="curve"/>
    </contour>
  </outline>
</glyph>
<glyph name="dNnRa" format="2">
  <advance width="713"/>
  <outline>
    <contour>
      <point x="575" y="-15" type="line"/>
      <point x="691" y="593" type="line"/>
      <point x="607" y="593" type="line"/>
      <point x="497" y="47" type="line"/>
      <point x="565" y="-15" type="line"/>
    </contour>
    <contour>
      <point x="798" y="545" type="line"/>
      <point x="800" y="555" type="line"/>
      <point x="769" y="620" type="line"/>
      <point x="34" y="620" type="line"/>
      <point x="32" y="610" type="line"/>
      <point x="63" y="545" type="line"/>
    </contour>
    <contour>
      <point x="543" y="183" type="line"/>
      <point x="566" y="290" type="line"/>
      <point x="235" y="44" type="line"/>
      <point x="291" y="-10" type="line"/>
    </contour>
    <contour>
      <point x="267" y="178" type="curve" smooth="yes"/>
      <point x="358" y="178"/>
      <point x="413" y="232"/>
      <point x="433" y="337" type="curve" smooth="yes"/>
      <point x="480" y="582" type="line"/>
      <point x="397" y="582" type="line"/>
      <point x="353" y="357" type="line" smooth="yes"/>
      <point x="336" y="268"/>
      <point x="288" y="243"/>
      <point x="244" y="243" type="curve" smooth="yes"/>
      <point x="194" y="243"/>
      <point x="174" y="271"/>
      <point x="174" y="306" type="curve" smooth="yes"/>
      <point x="174" y="314"/>
      <point x="175" y="324"/>
      <point x="177" y="335" type="curve" smooth="yes"/>
      <point x="224" y="582" type="line"/>
      <point x="139" y="582" type="line"/>
      <point x="127" y="520"/>
      <point x="113" y="459"/>
      <point x="103" y="406" type="curve" smooth="yes"/>
      <point x="98" y="379"/>
      <point x="94" y="359"/>
      <point x="94" y="347" type="curve" smooth="yes"/>
      <point x="94" y="279"/>
      <point x="160" y="178"/>
    </contour>
  </outline>
</glyph>
<glyph name="dOne.ss04sups" format="2">
  <advance width="438"/>
  <outline>
    <contour>
      <point x="397" y="302" type="line"/>
      <point x="437" y="514" type="line" smooth="yes"/>
      <point x="442" y="539"/>
      <point x="443" y="554"/>
      <point x="443" y="566" type="curve" smooth="yes"/>
      <point x="443" y="658"/>
      <point x="370" y="717"/>
      <point x="297" y="717" type="curve" smooth="yes"/>
      <point x="219" y="717"/>
      <point x="168" y="667"/>
      <point x="168" y="603" type="curve" smooth="yes"/>
      <point x="168" y="544"/>
      <point x="222" y="476"/>
      <point x="293" y="476" type="curve" smooth="yes"/>
      <point x="327" y="476"/>
      <point x="348" y="485"/>
      <point x="379" y="502" type="curve"/>
      <point x="396" y="591" type="line"/>
      <point x="356" y="557"/>
      <point x="324" y="534"/>
      <point x="283" y="534" type="curve" smooth="yes"/>
      <point x="247" y="534"/>
      <point x="231" y="553"/>
      <point x="231" y="580" type="curve" smooth="yes"/>
      <point x="231" y="625"/>
      <point x="276" y="658"/>
      <point x="323" y="658" type="curve" smooth="yes"/>
      <point x="364" y="658"/>
      <point x="379" y="634"/>
      <point x="379" y="597" type="curve" smooth="yes"/>
      <point x="379" y="584"/>
      <point x="377" y="569"/>
      <point x="374" y="553" type="curve" smooth="yes"/>
      <point x="331" y="353" type="line"/>
      <point x="387" y="302" type="line"/>
    </contour>
  </outline>
</glyph>
<glyph name="dPPa" format="2">
  <advance width="846"/>
  <outline>
    <contour>
      <point x="931" y="545" type="line"/>
      <point x="933" y="555" type="line"/>
      <point x="902" y="620" type="line"/>
      <point x="34" y="620" type="line"/>
      <point x="32" y="610" type="line"/>
      <point x="63" y="545" type="line"/>
    </contour>
    <contour>
      <point x="139" y="583" type="line"/>
      <point x="126" y="518"/>
      <point x="112" y="454"/>
      <point x="102" y="401" type="curve" smooth="yes"/>
      <point x="96" y="369"/>
      <point x="93" y="352"/>
      <point x="93" y="348" type="curve" smooth="yes"/>
      <point x="93" y="280"/>
      <point x="174" y="174"/>
      <point x="270" y="174" type="curve" smooth="yes"/>
      <point x="324" y="174"/>
      <point x="371" y="195"/>
      <point x="439" y="247" type="curve"/>
      <point x="403" y="315" type="line"/>
      <point x="327" y="258"/>
      <point x="269" y="238"/>
      <point x="232" y="238" type="curve" smooth="yes"/>
      <point x="195" y="238"/>
      <point x="165" y="266"/>
      <point x="177" y="330" type="curve" smooth="yes"/>
      <point x="224" y="583" type="line"/>
    </contour>
    <contour>
      <point x="738" y="583" type="line"/>
      <point x="676" y="265" type="line"/>
      <point x="668" y="241" type="line"/>
      <point x="631" y="52" type="line"/>
      <point x="698" y="-10" type="line"/>
      <point x="708" y="-10" type="line"/>
      <point x="822" y="583" type="line"/>
    </contour>
    <contour>
      <point x="428" y="583" type="line"/>
      <point x="415" y="518"/>
      <point x="398" y="443"/>
      <point x="388" y="390" type="curve" smooth="yes"/>
      <point x="382" y="358"/>
      <point x="379" y="341"/>
      <point x="379" y="337" type="curve" smooth="yes"/>
      <point x="379" y="269"/>
      <point x="460" y="163"/>
      <point x="556" y="163" type="curve" smooth="yes"/>
      <point x="610" y="163"/>
      <point x="657" y="184"/>
      <point x="725" y="236" type="curve"/>
      <point x="689" y="304" type="line"/>
      <point x="613" y="247"/>
      <point x="555" y="228"/>
      <point x="518" y="228" type="curve" smooth="yes"/>
      <point x="481" y="228"/>
      <point x="451" y="255"/>
      <point x="463" y="319" type="curve" smooth="yes"/>
      <point x="513" y="583" type="line"/>
    </contour>
  </outline>
</glyph>
<glyph name="dPR.half" format="2">
  <advance width="321"/>
  <outline>
    <contour>
      <point x="367" y="231" type="line"/>
      <point x="408" y="317" type="line"/>
      <point x="327" y="266"/>
      <point x="287" y="244"/>
      <point x="242" y="244" type="curve" smooth="yes"/>
      <point x="213" y="244"/>
      <point x="185" y="262"/>
      <point x="185" y="307" type="curve" smooth="yes"/>
      <point x="185" y="315"/>
      <point x="185" y="326"/>
      <point x="188" y="340" type="curve" smooth="yes"/>
      <point x="233" y="583" type="line"/>
      <point x="148" y="583" type="line"/>
      <point x="132" y="501"/>
      <point x="115" y="423"/>
      <point x="105" y="364" type="curve" smooth="yes"/>
      <point x="104" y="359"/>
      <point x="103" y="353"/>
      <point x="103" y="348" type="curve" smooth="yes"/>
      <point x="103" y="288"/>
      <point x="156" y="211"/>
      <point x="228" y="189" type="curve"/>
    </contour>
    <contour>
      <point x="427" y="243" type="line"/>
      <point x="408" y="317" type="line"/>
      <point x="284" y="222" type="line"/>
      <point x="249" y="222" type="line"/>
      <point x="30" y="89" type="line"/>
      <point x="80" y="27" type="line"/>
    </contour>
    <contour>
      <point x="478" y="545" type="line"/>
      <point x="480" y="555" type="line"/>
      <point x="448" y="620" type="line"/>
      <point x="33" y="620" type="line"/>
      <point x="31" y="610" type="line"/>
      <point x="63" y="545" type="line"/>
    </contour>
  </outline>
</glyph>
<glyph name="dPh.half" format="2">
  <advance width="570"/>
  <outline>
    <contour>
      <point x="265" y="168" type="curve" smooth="yes"/>
      <point x="307" y="168"/>
      <point x="328" y="179"/>
      <point x="411" y="231" type="curve" smooth="yes"/>
      <point x="486" y="278"/>
      <point x="563" y="338"/>
      <point x="609" y="338" type="curve" smooth="yes"/>
      <point x="624" y="338"/>
      <point x="636" y="336"/>
      <point x="646" y="329" type="curve"/>
      <point x="673" y="367" type="line"/>
      <point x="649" y="395"/>
      <point x="624" y="414"/>
      <point x="587" y="414" type="curve" smooth="yes"/>
      <point x="540" y="414"/>
      <point x="482" y="373"/>
      <point x="419" y="332" type="curve" smooth="yes"/>
      <point x="322" y="269"/>
      <point x="280" y="233"/>
      <point x="230" y="233" type="curve" smooth="yes"/>
      <point x="200" y="233"/>
      <point x="173" y="254"/>
      <point x="173" y="299" type="curve" smooth="yes"/>
      <point x="173" y="307"/>
      <point x="174" y="316"/>
      <point x="176" y="326" type="curve" smooth="yes"/>
      <point x="224" y="582" type="line"/>
      <point x="140" y="582" type="line"/>
      <point x="128" y="522"/>
      <point x="112" y="447"/>
      <point x="102" y="396" type="curve" smooth="yes"/>
      <point x="97" y="369"/>
      <point x="94" y="353"/>
      <point x="94" y="342" type="curve" smooth="yes"/>
      <point x="94" y="277"/>
      <point x="168" y="168"/>
    </contour>
    <contour>
      <point x="401" y="-10" type="line"/>
      <point x="514" y="582" type="line"/>
      <point x="431" y="582" type="line"/>
      <point x="324" y="54" type="line"/>
      <point x="391" y="-10" type="line"/>
    </contour>
    <contour>
      <point x="697" y="545" type="line"/>
      <point x="699" y="555" type="line"/>
      <point x="668" y="620" type="line"/>
      <point x="34" y="620" type="line"/>
      <point x="32" y="610" type="line"/>
      <point x="62" y="545" type="line"/>
    </contour>
  </outline>
</glyph>
<glyph name="dRakar" format="2">
  <outline>
    <contour>
      <point x="-441" y="-197" type="line"/>
      <point x="-293" y="-87" type="line" smooth="yes"/>
      <point x="-280" y="-77"/>
      <point x="-274" y="-77"/>
      <point x="-269" y="-77" type="curve" smooth="yes"/>
      <point x="-261" y="-77"/>
      <point x="-255" y="-81"/>
      <point x="-245" y="-91" type="curve" smooth="yes"/>
      <point x="-207" y="-131"/>
      <point x="-162" y="-189"/>
      <point x="-137" y="-223" type="curve"/>
      <point x="-130" y="-223" type="line"/>
      <point x="-96" y="-192" type="line"/>
      <point x="-132" y="-153"/>
      <point x="-201" y="-75"/>
      <point x="-249" y="-24" type="curve" smooth="yes"/>
      <point x="-259" y="-13"/>
      <point x="-271" y="-6"/>
      <point x="-281" y="-6" type="curve" smooth="yes"/>
      <point x="-292" y="-6"/>
      <point x="-300" y="-9"/>
      <point x="-312" y="-17" type="curve" smooth="yes"/>
      <point x="-484" y="-137" type="line"/>
    </contour>
  </outline>
</glyph>
<glyph name="dRakarSignUu" format="2">
  <outline>
    <contour>
      <point x="-68" y="-439" type="line"/>
      <point x="-27" y="-402" type="line"/>
      <point x="-68" y="-334"/>
      <point x="-185" y="-188"/>
      <point x="-313" y="-188" type="curve" smooth="yes"/>
      <point x="-388" y="-188"/>
      <point x="-437" y="-238"/>
      <point x="-437" y="-306" type="curve" smooth="yes"/>
      <point x="-437" y="-372"/>
      <point x="-390" y="-434"/>
      <point x="-311" y="-434" type="curve" smooth="yes"/>
      <point x="-274" y="-434"/>
      <point x="-237" y="-422"/>
      <point x="-208" y="-395" type="curve"/>
      <point x="-248" y="-328" type="line"/>
      <point x="-269" y="-348"/>
      <point x="-301" y="-373"/>
      <point x="-335" y="-373" type="curve" smooth="yes"/>
      <point x="-365" y="-373"/>
      <point x="-382" y="-350"/>
      <point x="-382" y="-324" type="curve" smooth="yes"/>
      <point x="-382" y="-284"/>
      <point x="-344" y="-254"/>
      <point x="-295" y="-254" type="curve" smooth="yes"/>
      <point x="-174" y="-254"/>
      <point x="-109" y="-377"/>
      <point x="-75" y="-439" type="curve"/>
    </contour>
    <contour>
      <point x="-440" y="-197" type="line"/>
      <point x="-292" y="-87" type="line" smooth="yes"/>
      <point x="-279" y="-77"/>
      <point x="-272" y="-77"/>
      <point x="-268" y="-77" type="curve" smooth="yes"/>
      <point x="-260" y="-77"/>
      <point x="-254" y="-81"/>
      <point x="-244" y="-91" type="curve" smooth="yes"/>
      <point x="-204" y="-133"/>
      <point x="-159" y="-192"/>
      <point x="-136" y="-223" type="curve"/>
      <point x="-129" y="-223" type="line"/>
      <point x="-95" y="-192" type="line"/>
      <point x="-131" y="-153"/>
      <point x="-198" y="-77"/>
      <point x="-248" y="-24" type="curve" smooth="yes"/>
      <point x="-258" y="-13"/>
      <point x="-270" y="-6"/>
      <point x="-280" y="-6" type="curve" smooth="yes"/>
      <point x="-292" y="-6"/>
      <point x="-299" y="-9"/>
      <point x="-311" y="-17" type="curve" smooth="yes"/>
      <point x="-483" y="-137" type="line"/>
    </contour>
  </outline>
</glyph>
<glyph name="dSRa" format="2">
  <advance width="721"/>
  <outline>
    <contour>
      <point x="541" y="235" type="line"/>
      <point x="560" y="226" type="line"/>
      <point x="597" y="315" type="line"/>
      <point x="437" y="273" type="line"/>
      <point x="442" y="257" type="line"/>
      <point x="302" y="152" type="line"/>
      <point x="353" y="90" type="line"/>
    </contour>
    <contour>
      <point x="441" y="258" type="curve" smooth="yes"/>
      <point x="473" y="257"/>
      <point x="536" y="261"/>
      <point x="566" y="269" type="curve"/>
      <point x="581" y="367" type="line"/>
      <point x="534" y="333"/>
      <point x="468" y="322"/>
      <point x="415" y="322" type="curve" smooth="yes"/>
      <point x="357" y="322"/>
      <point x="307" y="331"/>
      <point x="275" y="351" type="curve"/>
      <point x="252" y="316" type="line"/>
      <point x="296" y="275"/>
      <point x="375" y="260"/>
    </contour>
    <contour>
      <point x="583" y="-10" type="line"/>
      <point x="696" y="581" type="line"/>
      <point x="612" y="581" type="line"/>
      <point x="506" y="52" type="line"/>
      <point x="573" y="-10" type="line"/>
    </contour>
    <contour>
      <point x="806" y="545" type="line"/>
      <point x="808" y="555" type="line"/>
      <point x="777" y="620" type="line"/>
      <point x="34" y="620" type="line"/>
      <point x="32" y="610" type="line"/>
      <point x="63" y="545" type="line"/>
    </contour>
    <contour>
      <point x="264" y="-20" type="line"/>
      <point x="318" y="18" type="line"/>
      <point x="146" y="255" type="line"/>
      <point x="142" y="243" type="line"/>
      <point x="202" y="253"/>
      <point x="240" y="269"/>
      <point x="269" y="318" type="curve" smooth="yes"/>
      <point x="289" y="351"/>
      <point x="307" y="401"/>
      <point x="321" y="472" type="curve" smooth="yes"/>
      <point x="325" y="494"/>
      <point x="334" y="548"/>
      <point x="335" y="567" type="curve"/>
      <point x="255" y="567" type="line"/>
      <point x="252" y="549"/>
      <point x="250" y="529"/>
      <point x="242" y="487" type="curve" smooth="yes"/>
      <point x="235" y="450"/>
      <point x="224" y="401"/>
      <point x="208" y="368" type="curve"/>
      <point x="221" y="377" type="line"/>
      <point x="201" y="380"/>
      <point x="145" y="384"/>
      <point x="118" y="384" type="curve" smooth="yes"/>
      <point x="78" y="384"/>
      <point x="64" y="372"/>
      <point x="64" y="345" type="curve" smooth="yes"/>
      <point x="64" y="315"/>
      <point x="79" y="276"/>
      <point x="100" y="240" type="curve" smooth="yes"/>
      <point x="253" y="-20" type="line"/>
    </contour>
  </outline>
</glyph>
<glyph name="dShNa" format="2">
  <advance width="679"/>
  <outline>
    <contour>
      <point x="540" y="-15" type="line"/>
      <point x="654" y="581" type="line"/>
      <point x="570" y="581" type="line"/>
      <point x="462" y="47" type="line"/>
      <point x="530" y="-15" type="line"/>
    </contour>
    <contour>
      <point x="764" y="545" type="line"/>
      <point x="766" y="555" type="line"/>
      <point x="734" y="620" type="line"/>
      <point x="447" y="620" type="line"/>
      <point x="445" y="610" type="line"/>
      <point x="477" y="545" type="line"/>
    </contour>
    <contour>
      <point x="442" y="286" type="line"/>
      <point x="204" y="149" type="line" smooth="yes"/>
      <point x="180" y="135"/>
      <point x="160" y="124"/>
      <point x="160" y="104" type="curve" smooth="yes"/>
      <point x="160" y="68"/>
      <point x="235" y="12"/>
      <point x="277" y="12" type="curve" smooth="yes"/>
      <point x="301" y="12"/>
      <point x="306" y="28"/>
      <point x="306" y="48" type="curve" smooth="yes"/>
      <point x="306" y="59"/>
      <point x="305" y="74"/>
      <point x="298" y="115" type="curve"/>
      <point x="570" y="282" type="line"/>
      <point x="552" y="321" type="line"/>
    </contour>
    <contour>
      <point x="87" y="203" type="line"/>
      <point x="180" y="251"/>
      <point x="242" y="281"/>
      <point x="297" y="315" type="curve" smooth="yes"/>
      <point x="386" y="371"/>
      <point x="430" y="412"/>
      <point x="430" y="480" type="curve" smooth="yes"/>
      <point x="430" y="559"/>
      <point x="355" y="633"/>
      <point x="272" y="633" type="curve" smooth="yes"/>
      <point x="190" y="633"/>
      <point x="132" y="578"/>
      <point x="132" y="508" type="curve" smooth="yes"/>
      <point x="132" y="370"/>
      <point x="369" y="270"/>
      <point x="542" y="254" type="curve"/>
      <point x="554" y="311" type="line"/>
      <point x="401" y="319"/>
      <point x="203" y="376"/>
      <point x="203" y="479" type="curve" smooth="yes"/>
      <point x="203" y="532"/>
      <point x="253" y="567"/>
      <point x="303" y="567" type="curve" smooth="yes"/>
      <point x="342" y="567"/>
      <point x="368" y="543"/>
      <point x="368" y="510" type="curve" smooth="yes"/>
      <point x="368" y="460"/>
      <point x="329" y="430"/>
      <point x="242" y="378" type="curve" smooth="yes"/>
      <point x="178" y="340"/>
      <point x="116" y="311"/>
      <point x="33" y="273" type="curve"/>
    </contour>
  </outline>
</glyph>
<glyph name="dShVa" format="2">
  <advance width="705"/>
  <outline>
    <contour>
      <point x="397" y="6" type="curve" smooth="yes"/>
      <point x="434" y="6"/>
      <point x="468" y="16"/>
      <point x="503" y="41" type="curve"/>
      <point x="523" y="146" type="line"/>
      <point x="465" y="91"/>
      <point x="410" y="70"/>
      <point x="367" y="70" type="curve" smooth="yes"/>
      <point x="329" y="70"/>
      <point x="302" y="91"/>
      <point x="302" y="125" type="curve" smooth="yes"/>
      <point x="302" y="189"/>
      <point x="379" y="242"/>
      <point x="484" y="242" type="curve" smooth="yes"/>
      <point x="510" y="242"/>
      <point x="527" y="240"/>
      <point x="542" y="239" type="curve"/>
      <point x="554" y="301" type="line"/>
      <point x="387" y="304" type="line"/>
      <point x="304" y="281"/>
      <point x="235" y="234"/>
      <point x="235" y="158" type="curve" smooth="yes"/>
      <point x="235" y="90"/>
      <point x="303" y="6"/>
    </contour>
    <contour>
      <point x="550" y="-97" type="line"/>
      <point x="679" y="581" type="line"/>
      <point x="595" y="581" type="line"/>
      <point x="474" y="-30" type="line"/>
      <point x="540" y="-97" type="line"/>
    </contour>
    <contour>
      <point x="789" y="545" type="line"/>
      <point x="791" y="555" type="line"/>
      <point x="760" y="620" type="line"/>
      <point x="453" y="620" type="line"/>
      <point x="451" y="610" type="line"/>
      <point x="482" y="545" type="line"/>
    </contour>
    <contour>
      <point x="89" y="208" type="line"/>
      <point x="182" y="256"/>
      <point x="244" y="289"/>
      <point x="299" y="323" type="curve" smooth="yes"/>
      <point x="388" y="379"/>
      <point x="432" y="417"/>
      <point x="432" y="486" type="curve" smooth="yes"/>
      <point x="432" y="564"/>
      <point x="357" y="638"/>
      <point x="274" y="638" type="curve" smooth="yes"/>
      <point x="192" y="638"/>
      <point x="134" y="583"/>
      <point x="134" y="513" type="curve" smooth="yes"/>
      <point x="134" y="375"/>
      <point x="371" y="275"/>
      <point x="544" y="259" type="curve"/>
      <point x="556" y="316" type="line"/>
      <point x="403" y="324"/>
      <point x="205" y="381"/>
      <point x="205" y="484" type="curve" smooth="yes"/>
      <point x="205" y="537"/>
      <point x="255" y="572"/>
      <point x="305" y="572" type="curve" smooth="yes"/>
      <point x="344" y="572"/>
      <point x="370" y="548"/>
      <point x="370" y="515" type="curve" smooth="yes"/>
      <point x="370" y="465"/>
      <point x="331" y="435"/>
      <point x="244" y="383" type="curve" smooth="yes"/>
      <point x="180" y="345"/>
      <point x="118" y="316"/>
      <point x="35" y="278" type="curve"/>
    </contour>
  </outline>
</glyph>
<glyph name="dSignERephAnusvara" format="2">
  <outline>
    <contour>
      <point x="-31" y="608" type="line"/>
      <point x="-106" y="788"/>
      <point x="-163" y="911"/>
      <point x="-265" y="911" type="curve" smooth="yes"/>
      <point x="-277" y="911"/>
      <point x="-314" y="908"/>
      <point x="-361" y="900" type="curve"/>
      <point x="-363" y="893" type="line"/>
      <point x="-335" y="810" type="line"/>
      <point x="-302" y="816"/>
      <point x="-263" y="821"/>
      <point x="-241" y="821" type="curve" smooth="yes"/>
      <point x="-180" y="821"/>
      <point x="-149" y="773"/>
      <point x="-82" y="608" type="curve"/>
    </contour>
    <contour>
      <point x="-25" y="608" type="line"/>
      <point x="-49" y="652"/>
      <point x="-65" y="695"/>
      <point x="-65" y="734" type="curve" smooth="yes"/>
      <point x="-65" y="791"/>
      <point x="-29" y="848"/>
      <point x="46" y="848" type="curve" smooth="yes"/>
      <point x="76" y="848"/>
      <point x="100" y="840"/>
      <point x="120" y="830" type="curve"/>
      <point x="125" y="836" type="line"/>
      <point x="116" y="890"/>
      <point x="65" y="916"/>
      <point x="15" y="916" type="curve" smooth="yes"/>
      <point x="-68" y="916"/>
      <point x="-107" y="853"/>
      <point x="-107" y="793" type="curve" smooth="yes"/>
      <point x="-107" y="784" type="line"/>
      <point x="-124" y="778" type="line"/>
      <point x="-66" y="608" type="line"/>
    </contour>
    <contour>
      <point x="106" y="737" type="line"/>
      <point x="53" y="800" type="line"/>
      <point x="-17" y="741" type="line"/>
      <point x="36" y="678" type="line"/>
    </contour>
  </outline>
</glyph>
<glyph name="dSignI.M" format="2">
  <advance width="267"/>
  <outline>
    <contour>
      <point x="235" y="602" type="line"/>
      <point x="224" y="622"/>
      <point x="220" y="645"/>
      <point x="220" y="666" type="curve" smooth="yes"/>
      <point x="220" y="756"/>
      <point x="293" y="805"/>
      <point x="413" y="805" type="curve" smooth="yes"/>
      <point x="554" y="805"/>
      <point x="686" y="759"/>
      <point x="835" y="644" type="curve"/>
      <point x="862" y="675" type="line"/>
      <point x="687" y="823"/>
      <point x="520" y="882"/>
      <point x="389" y="882" type="curve" smooth="yes"/>
      <point x="235" y="882"/>
      <point x="153" y="816"/>
      <point x="153" y="706" type="curve" smooth="yes"/>
      <point x="153" y="672"/>
      <point x="162" y="635"/>
      <point x="179" y="602" type="curve"/>
    </contour>
    <contour>
      <point x="129" y="-15" type="line"/>
      <point x="240" y="571" type="line"/>
      <point x="156" y="571" type="line"/>
      <point x="51" y="47" type="line"/>
      <point x="119" y="-15" type="line"/>
    </contour>
    <contour>
      <point x="352" y="545" type="line"/>
      <point x="354" y="555" type="line"/>
      <point x="323" y="620" type="line"/>
      <point x="34" y="620" type="line"/>
      <point x="32" y="610" type="line"/>
      <point x="63" y="545" type="line"/>
    </contour>
  </outline>
</glyph>
<glyph name="dSignI.N" format="2">
  <advance width="267"/>
  <outline>
    <contour>
      <point x="234" y="604" type="line"/>
      <point x="223" y="625"/>
      <point x="218" y="651"/>
      <point x="218" y="677" type="curve" smooth="yes"/>
      <point x="218" y="742"/>
      <point x="258" y="803"/>
      <point x="330" y="803" type="curve" smooth="yes"/>
      <point x="423" y="803"/>
      <point x="485" y="732"/>
      <point x="539" y="642" type="curve"/>
      <point x="572" y="665" type="line"/>
      <point x="496" y="809"/>
      <point x="413" y="880"/>
      <point x="314" y="880" type="curve" smooth="yes"/>
      <point x="205" y="880"/>
      <point x="150" y="804"/>
      <point x="150" y="714" type="curve" smooth="yes"/>
      <point x="150" y="676"/>
      <point x="162" y="635"/>
      <point x="179" y="604" type="curve"/>
    </contour>
    <contour>
      <point x="129" y="-15" type="line"/>
      <point x="240" y="571" type="line"/>
      <point x="156" y="571" type="line"/>
      <point x="51" y="47" type="line"/>
      <point x="119" y="-15" type="line"/>
    </contour>
    <contour>
      <point x="352" y="545" type="line"/>
      <point x="354" y="555" type="line"/>
      <point x="323" y="620" type="line"/>
      <point x="34" y="620" type="line"/>
      <point x="32" y="610" type="line"/>
      <point x="63" y="545" type="line"/>
    </contour>
  </outline>
</glyph>
<glyph name="dSignIiReph" format="2">
  <advance width="267"/>
  <outline>
    <contour>
      <point x="128" y="-15" type="line"/>
      <point x="238" y="561" type="line"/>
      <point x="154" y="561" type="line"/>
      <point x="50" y="47" type="line"/>
      <point x="118" y="-15" type="line"/>
    </contour>
    <contour>
      <point x="352" y="545" type="line"/>
      <point x="354" y="555" type="line"/>
      <point x="322" y="620" type="line"/>
      <point x="33" y="620" type="line"/>
      <point x="31" y="610" type="line"/>
      <point x="63" y="545" type="line"/>
    </contour>
    <contour>
      <point x="238" y="600" type="line"/>
      <point x="242" y="772"/>
      <point x="163" y="880"/>
      <point x="34" y="880" type="curve" smooth="yes"/>
      <point x="-64" y="880"/>
      <point x="-119" y="812"/>
      <point x="-119" y="736" type="curve" smooth="yes"/>
      <point x="-119" y="705"/>
      <point x="-109" y="668"/>
      <point x="-89" y="642" type="curve"/>
      <point x="-58" y="658" type="line"/>
      <point x="-61" y="670"/>
      <point x="-63" y="686"/>
      <point x="-63" y="698" type="curve" smooth="yes"/>
      <point x="-63" y="756"/>
      <point x="-20" y="803"/>
      <point x="57" y="803" type="curve" smooth="yes"/>
      <point x="125" y="803"/>
      <point x="174" y="763"/>
      <point x="174" y="666" type="curve" smooth="yes"/>
      <point x="174" y="645"/>
      <point x="172" y="622"/>
      <point x="167" y="595" type="curve"/>
    </contour>
    <contour>
      <point x="232" y="688" type="line"/>
      <point x="230" y="698"/>
      <point x="229" y="712"/>
      <point x="229" y="720" type="curve" smooth="yes"/>
      <point x="229" y="792"/>
      <point x="260" y="840"/>
      <point x="334" y="840" type="curve" smooth="yes"/>
      <point x="363" y="840"/>
      <point x="393" y="833"/>
      <point x="414" y="824" type="curve"/>
      <point x="419" y="830" type="line"/>
      <point x="408" y="878"/>
      <point x="365" y="911"/>
      <point x="313" y="911" type="curve" smooth="yes"/>
      <point x="245" y="911"/>
      <point x="199" y="868"/>
      <point x="198" y="788" type="curve"/>
      <point x="176" y="783" type="line"/>
    </contour>
  </outline>
</glyph>
<glyph name="dSignUAnudatta" format="2">
  <outline>
    <contour>
      <point x="-274" y="-138" type="line"/>
      <point x="-249" y="-114"/>
      <point x="-216" y="-89"/>
      <point x="-179" y="-89" type="curve" smooth="yes"/>
      <point x="-154" y="-89"/>
      <point x="-135" y="-101"/>
      <point x="-135" y="-127" type="curve" smooth="yes"/>
      <point x="-135" y="-169"/>
      <point x="-179" y="-207"/>
      <point x="-247" y="-207" type="curve" smooth="yes"/>
      <point x="-322" y="-207"/>
      <point x="-377" y="-162"/>
      <point x="-452" y="-36" type="curve"/>
      <point x="-459" y="-36" type="line"/>
      <point x="-498" y="-74" type="line"/>
      <point x="-459" y="-132"/>
      <point x="-350" y="-274"/>
      <point x="-221" y="-274" type="curve" smooth="yes"/>
      <point x="-142" y="-274"/>
      <point x="-80" y="-224"/>
      <point x="-80" y="-145" type="curve" smooth="yes"/>
      <point x="-80" y="-85"/>
      <point x="-130" y="-29"/>
      <point x="-202" y="-29" type="curve" smooth="yes"/>
      <point x="-248" y="-29"/>
      <point x="-285" y="-42"/>
      <point x="-318" y="-76" type="curve"/>
    </contour>
    <contour>
      <point x="-498" y="-319" type="line"/>
      <point x="-507" y="-366" type="line"/>
      <point x="-163" y="-366" type="line"/>
      <point x="-154" y="-319" type="line"/>
    </contour>
  </outline>
</glyph>
<glyph name="dSsR.half" format="2">
  <advance width="346"/>
  <outline>
    <contour>
      <point x="453" y="240" type="line"/>
      <point x="434" y="315" type="line"/>
      <point x="412" y="296" type="line"/>
      <point x="339" y="254"/>
      <point x="303" y="236"/>
      <point x="257" y="236" type="curve" smooth="yes"/>
      <point x="225" y="236"/>
      <point x="184" y="258"/>
      <point x="184" y="308" type="curve" smooth="yes"/>
      <point x="184" y="313"/>
      <point x="185" y="320"/>
      <point x="186" y="326" type="curve" smooth="yes"/>
      <point x="236" y="602" type="line"/>
      <point x="152" y="602" type="line"/>
      <point x="141" y="542"/>
      <point x="121" y="447"/>
      <point x="111" y="396" type="curve" smooth="yes"/>
      <point x="108" y="381"/>
      <point x="106" y="372"/>
      <point x="104" y="354" type="curve" smooth="yes"/>
      <point x="103" y="350"/>
      <point x="103" y="346"/>
      <point x="103" y="342" type="curve" smooth="yes"/>
      <point x="103" y="280"/>
      <point x="179" y="189"/>
      <point x="282" y="173" type="curve"/>
    </contour>
    <contour>
      <point x="453" y="240" type="line"/>
      <point x="235" y="198" type="line"/>
      <point x="33" y="76" type="line"/>
      <point x="83" y="12" type="line"/>
    </contour>
    <contour>
      <point x="434" y="315" type="line"/>
      <point x="195" y="590" type="line"/>
      <point x="183" y="534" type="line"/>
      <point x="423" y="262" type="line"/>
    </contour>
    <contour>
      <point x="503" y="545" type="line"/>
      <point x="505" y="555" type="line"/>
      <point x="474" y="620" type="line"/>
      <point x="34" y="620" type="line"/>
      <point x="32" y="610" type="line"/>
      <point x="63" y="545" type="line"/>
    </contour>
  </outline>
</glyph>
<glyph name="dSsTtha" format="2">
  <advance width="581"/>
  <outline>
    <contour>
      <point x="267" y="-115" type="curve" smooth="yes"/>
      <point x="398" y="-115"/>
      <point x="494" y="-44"/>
      <point x="494" y="63" type="curve" smooth="yes"/>
      <point x="494" y="130"/>
      <point x="460" y="184"/>
      <point x="403" y="234" type="curve"/>
      <point x="360" y="208" type="line"/>
      <point x="398" y="184"/>
      <point x="420" y="137"/>
      <point x="420" y="91" type="curve" smooth="yes"/>
      <point x="420" y="7"/>
      <point x="333" y="-44"/>
      <point x="236" y="-44" type="curve" smooth="yes"/>
      <point x="163" y="-44"/>
      <point x="115" y="-13"/>
      <point x="115" y="51" type="curve" smooth="yes"/>
      <point x="115" y="127"/>
      <point x="181" y="147"/>
      <point x="300" y="177" type="curve" smooth="yes"/>
      <point x="424" y="208"/>
      <point x="486" y="251"/>
      <point x="504" y="347" type="curve" smooth="yes"/>
      <point x="524" y="452"/>
      <point x="539" y="521"/>
      <point x="549" y="580" type="curve"/>
      <point x="467" y="580" type="line"/>
      <point x="424" y="365" type="line" smooth="yes"/>
      <point x="418" y="333"/>
      <point x="411" y="314"/>
      <point x="394" y="300" type="curve" smooth="yes"/>
      <point x="366" y="277"/>
      <point x="289" y="251"/>
      <point x="253" y="251" type="curve" smooth="yes"/>
      <point x="221" y="251"/>
      <point x="196" y="264"/>
      <point x="196" y="309" type="curve" smooth="yes"/>
      <point x="196" y="316"/>
      <point x="197" y="329"/>
      <point x="199" y="340" type="curve" smooth="yes"/>
      <point x="245" y="594" type="line"/>
      <point x="161" y="594" type="line"/>
      <point x="135" y="469"/>
      <point x="120" y="386"/>
      <point x="120" y="364" type="curve" smooth="yes"/>
      <point x="120" y="312"/>
      <point x="138" y="257"/>
      <point x="199" y="217" type="curve"/>
      <point x="197" y="233" type="line"/>
      <point x="111" y="207"/>
      <point x="47" y="173"/>
      <point x="47" y="83" type="curve" smooth="yes"/>
      <point x="47" y="-14"/>
      <point x="137" y="-115"/>
    </contour>
    <contour>
      <point x="666" y="545" type="line"/>
      <point x="668" y="555" type="line"/>
      <point x="637" y="620" type="line"/>
      <point x="34" y="620" type="line"/>
      <point x="32" y="610" type="line"/>
      <point x="63" y="545" type="line"/>
    </contour>
    <contour>
      <point x="423" y="314" type="line"/>
      <point x="209" y="577" type="line"/>
      <point x="180" y="541" type="line"/>
      <point x="400" y="274" type="line"/>
    </contour>
  </outline>
</glyph>
<glyph name="dTR.half2" format="2">
  <advance width="356"/>
  <outline>
    <contour>
      <point x="513" y="545" type="line"/>
      <point x="515" y="555" type="line"/>
      <point x="484" y="620" type="line"/>
      <point x="34" y="620" type="line"/>
      <point x="32" y="610" type="line"/>
      <point x="63" y="545" type="line"/>
    </contour>
    <contour>
      <point x="437" y="381" type="line"/>
      <point x="442" y="365" type="line"/>
      <point x="218" y="200" type="line"/>
      <point x="275" y="145" type="line"/>
      <point x="486" y="309" type="line"/>
      <point x="523" y="427" type="line"/>
    </contour>
    <contour>
      <point x="523" y="427" type="line"/>
      <point x="466" y="437"/>
      <point x="374" y="449"/>
      <point x="303" y="449" type="curve" smooth="yes"/>
      <point x="168" y="449"/>
      <point x="56" y="417"/>
      <point x="56" y="277" type="curve" smooth="yes"/>
      <point x="56" y="192"/>
      <point x="98" y="101"/>
      <point x="162" y="-10" type="curve"/>
      <point x="172" y="-10" type="line"/>
      <point x="219" y="23" type="line"/>
      <point x="147" y="129"/>
      <point x="124" y="176"/>
      <point x="124" y="231" type="curve" smooth="yes"/>
      <point x="124" y="338"/>
      <point x="209" y="374"/>
      <point x="319" y="374" type="curve" smooth="yes"/>
      <point x="364" y="374"/>
      <point x="425" y="370"/>
      <point x="474" y="362" type="curve"/>
    </contour>
  </outline>
</glyph>
<glyph name="dTTYa" format="2">
  <advance width="971"/>
  <outline>
    <contour>
      <point x="562" y="331" type="curve" smooth="yes"/>
      <point x="657" y="331"/>
      <point x="691" y="385"/>
      <point x="691" y="446" type="curve" smooth="yes"/>
      <point x="691" y="481"/>
      <point x="680" y="519"/>
      <point x="663" y="560" type="curve"/>
      <point x="607" y="558" type="line"/>
      <point x="620" y="534"/>
      <point x="628" y="504"/>
      <point x="628" y="478" type="curve" smooth="yes"/>
      <point x="628" y="434"/>
      <point x="603" y="405"/>
      <point x="547" y="405" type="curve" smooth="yes"/>
      <point x="529" y="405"/>
      <point x="494" y="409"/>
      <point x="466" y="425" type="curve"/>
      <point x="51" y="425" type="line"/>
      <point x="49" y="415" type="line"/>
      <point x="81" y="350" type="line"/>
      <point x="267" y="350" type="line"/>
      <point x="376" y="365" type="line"/>
      <point x="398" y="350" type="line"/>
      <point x="474" y="350" type="line"/>
      <point x="488" y="344"/>
      <point x="519" y="331"/>
    </contour>
    <contour>
      <point x="285" y="-10" type="line"/>
      <point x="331" y="22" type="line"/>
      <point x="262" y="126"/>
      <point x="235" y="171"/>
      <point x="235" y="227" type="curve" smooth="yes"/>
      <point x="235" y="300"/>
      <point x="295" y="350"/>
      <point x="398" y="350" type="curve"/>
      <point x="411" y="400" type="line"/>
      <point x="231" y="400" type="line"/>
      <point x="184" y="356"/>
      <point x="167" y="326"/>
      <point x="167" y="272" type="curve" smooth="yes"/>
      <point x="167" y="192"/>
      <point x="214" y="96"/>
      <point x="275" y="-10" type="curve"/>
    </contour>
    <contour>
      <point x="665" y="136" type="curve" smooth="yes"/>
      <point x="709" y="136"/>
      <point x="751" y="150"/>
      <point x="797" y="180" type="curve"/>
      <point x="817" y="279" type="line"/>
      <point x="748" y="226"/>
      <point x="686" y="199"/>
      <point x="634" y="199" type="curve" smooth="yes"/>
      <point x="570" y="199"/>
      <point x="515" y="236"/>
      <point x="528" y="358" type="curve"/>
      <point x="458" y="370" type="line"/>
      <point x="457" y="219"/>
      <point x="560" y="136"/>
    </contour>
    <contour>
      <point x="1056" y="545" type="line"/>
      <point x="1058" y="555" type="line"/>
      <point x="1027" y="620" type="line"/>
      <point x="34" y="620" type="line"/>
      <point x="32" y="610" type="line"/>
      <point x="63" y="545" type="line"/>
    </contour>
    <contour>
      <point x="833" y="-10" type="line"/>
      <point x="944" y="571" type="line"/>
      <point x="860" y="571" type="line"/>
      <point x="756" y="52" type="line"/>
      <point x="823" y="-10" type="line"/>
    </contour>
  </outline>
</glyph>
<glyph name="dTTha" format="2">
  <advance width="884"/>
  <outline>
    <contour>
      <point x="172" y="-10" type="line"/>
      <point x="218" y="23" type="line"/>
      <point x="147" y="129"/>
      <point x="122" y="179"/>
      <point x="122" y="236" type="curve" smooth="yes"/>
      <point x="122" y="302"/>
      <point x="174" y="352"/>
      <point x="248" y="352" type="curve" smooth="yes"/>
      <point x="318" y="352"/>
      <point x="350" y="310"/>
      <point x="370" y="266" type="curve" smooth="yes"/>
      <point x="384" y="235"/>
      <point x="431" y="133"/>
      <point x="558" y="133" type="curve" smooth="yes"/>
      <point x="613" y="133"/>
      <point x="665" y="152"/>
      <point x="724" y="202" type="curve"/>
      <point x="739" y="307" type="line"/>
      <point x="681" y="250"/>
      <point x="593" y="197"/>
      <point x="523" y="197" type="curve" smooth="yes"/>
      <point x="470" y="197"/>
      <point x="426" y="229"/>
      <point x="426" y="279" type="curve" smooth="yes"/>
      <point x="426" y="290"/>
      <point x="429" y="301"/>
      <point x="433" y="314" type="curve"/>
      <point x="383" y="347" type="line"/>
      <point x="353" y="382"/>
      <point x="283" y="425"/>
      <point x="218" y="425" type="curve" smooth="yes"/>
      <point x="103" y="425"/>
      <point x="53" y="353"/>
      <point x="53" y="267" type="curve" smooth="yes"/>
      <point x="53" y="189"/>
      <point x="100" y="96"/>
      <point x="162" y="-10" type="curve"/>
    </contour>
    <contour>
      <point x="382" y="545" type="line"/>
      <point x="462" y="620" type="line"/>
      <point x="34" y="620" type="line"/>
      <point x="32" y="610" type="line"/>
      <point x="63" y="545" type="line"/>
    </contour>
    <contour>
      <point x="407" y="284" type="line"/>
      <point x="543" y="327"/>
      <point x="638" y="364"/>
      <point x="638" y="474" type="curve" smooth="yes"/>
      <point x="638" y="547"/>
      <point x="571" y="633"/>
      <point x="474" y="633" type="curve" smooth="yes"/>
      <point x="395" y="633"/>
      <point x="336" y="582"/>
      <point x="336" y="511" type="curve" smooth="yes"/>
      <point x="336" y="466"/>
      <point x="360" y="419"/>
      <point x="424" y="419" type="curve" smooth="yes"/>
      <point x="432" y="419"/>
      <point x="436" y="419"/>
      <point x="446" y="421" type="curve"/>
      <point x="448" y="432" type="line"/>
      <point x="428" y="443"/>
      <point x="410" y="458"/>
      <point x="410" y="482" type="curve" smooth="yes"/>
      <point x="410" y="530"/>
      <point x="470" y="562"/>
      <point x="515" y="562" type="curve" smooth="yes"/>
      <point x="551" y="562"/>
      <point x="576" y="543"/>
      <point x="576" y="506" type="curve" smooth="yes"/>
      <point x="576" y="431"/>
      <point x="488" y="393"/>
      <point x="347" y="357" type="curve"/>
    </contour>
    <contour>
      <point x="746" y="-10" type="line"/>
      <point x="859" y="581" type="line"/>
      <point x="775" y="581" type="line"/>
      <point x="669" y="52" type="line"/>
      <point x="736" y="-10" type="line"/>
    </contour>
    <contour>
      <point x="969" y="545" type="line"/>
      <point x="971" y="555" type="line"/>
      <point x="940" y="620" type="line"/>
      <point x="667" y="620" type="line"/>
      <point x="665" y="610" type="line"/>
      <point x="696" y="545" type="line"/>
    </contour>
  </outline>
</glyph>
<glyph name="dTtTta" format="2">
  <advance width="531"/>
  <outline>
    <contour>
      <point x="215" y="-319" type="curve" smooth="yes"/>
      <point x="281" y="-319"/>
      <point x="345" y="-291"/>
      <point x="401" y="-234" type="curve"/>
      <point x="351" y="-170" type="line"/>
      <point x="300" y="-214"/>
      <point x="248" y="-248"/>
      <point x="175" y="-248" type="curve" smooth="yes"/>
      <point x="113" y="-248"/>
      <point x="62" y="-223"/>
      <point x="62" y="-159" type="curve" smooth="yes"/>
      <point x="62" y="-86"/>
      <point x="127" y="-43"/>
      <point x="219" y="-43" type="curve" smooth="yes"/>
      <point x="335" y="-43" type="line"/>
      <point x="348" y="-35" type="line"/>
      <point x="356" y="6"/>
      <point x="375" y="109"/>
      <point x="384" y="159" type="curve"/>
      <point x="307" y="159" type="line"/>
      <point x="282" y="31" type="line"/>
      <point x="222" y="31" type="line" smooth="yes"/>
      <point x="162" y="31"/>
      <point x="-2" y="31"/>
      <point x="-2" y="-118" type="curve" smooth="yes"/>
      <point x="-2" y="-236"/>
      <point x="101" y="-319"/>
    </contour>
    <contour>
      <point x="616" y="545" type="line"/>
      <point x="618" y="555" type="line"/>
      <point x="586" y="620" type="line"/>
      <point x="33" y="620" type="line"/>
      <point x="31" y="610" type="line"/>
      <point x="63" y="545" type="line"/>
    </contour>
    <contour>
      <point x="289" y="93" type="curve" smooth="yes"/>
      <point x="358" y="93"/>
      <point x="437" y="129"/>
      <point x="494" y="183" type="curve"/>
      <point x="444" y="249" type="line"/>
      <point x="385" y="206"/>
      <point x="327" y="166"/>
      <point x="254" y="166" type="curve" smooth="yes"/>
      <point x="186" y="166"/>
      <point x="128" y="194"/>
      <point x="128" y="259" type="curve" smooth="yes"/>
      <point x="128" y="329"/>
      <point x="190" y="381"/>
      <point x="293" y="381" type="curve" smooth="yes"/>
      <point x="421" y="381" type="line"/>
      <point x="434" y="389" type="line"/>
      <point x="444" y="438"/>
      <point x="463" y="542"/>
      <point x="471" y="590" type="curve"/>
      <point x="390" y="590" type="line"/>
      <point x="364" y="455" type="line"/>
      <point x="292" y="455" type="line" smooth="yes"/>
      <point x="147" y="455"/>
      <point x="62" y="410"/>
      <point x="62" y="302" type="curve" smooth="yes"/>
      <point x="62" y="198"/>
      <point x="154" y="93"/>
    </contour>
  </outline>
</glyph>
<glyph name="dTthYa" format="2">
  <advance width="1075"/>
  <outline>
    <contour>
      <point x="299" y="44" type="curve" smooth="yes"/>
      <point x="411" y="44"/>
      <point x="530" y="104"/>
      <point x="530" y="231" type="curve" smooth="yes"/>
      <point x="530" y="308"/>
      <point x="487" y="378"/>
      <point x="423" y="420" type="curve"/>
      <point x="397" y="382" type="line"/>
      <point x="431" y="367"/>
      <point x="456" y="321"/>
      <point x="456" y="273" type="curve" smooth="yes"/>
      <point x="456" y="185"/>
      <point x="373" y="115"/>
      <point x="260" y="115" type="curve" smooth="yes"/>
      <point x="173" y="115"/>
      <point x="120" y="158"/>
      <point x="120" y="235" type="curve" smooth="yes"/>
      <point x="120" y="330"/>
      <point x="220" y="370"/>
      <point x="380" y="370" type="curve" smooth="yes"/>
      <point x="432" y="370"/>
      <point x="443" y="381"/>
      <point x="455" y="445" type="curve" smooth="yes"/>
      <point x="468" y="515"/>
      <point x="475" y="553"/>
      <point x="481" y="583" type="curve"/>
      <point x="401" y="583" type="line"/>
      <point x="383" y="492" type="line" smooth="yes"/>
      <point x="374" y="448"/>
      <point x="369" y="445"/>
      <point x="342" y="445" type="curve" smooth="yes"/>
      <point x="120" y="445"/>
      <point x="52" y="374"/>
      <point x="52" y="268" type="curve" smooth="yes"/>
      <point x="52" y="154"/>
      <point x="148" y="44"/>
    </contour>
    <contour>
      <point x="761" y="55" type="curve" smooth="yes"/>
      <point x="796" y="55"/>
      <point x="829" y="61"/>
      <point x="865" y="81" type="curve"/>
      <point x="880" y="73" type="line"/>
      <point x="903" y="194" type="line"/>
      <point x="840" y="145"/>
      <point x="778" y="118"/>
      <point x="740" y="118" type="curve" smooth="yes"/>
      <point x="691" y="118"/>
      <point x="659" y="148"/>
      <point x="661" y="184" type="curve"/>
      <point x="769" y="212"/>
      <point x="812" y="245"/>
      <point x="812" y="311" type="curve" smooth="yes"/>
      <point x="812" y="363"/>
      <point x="765" y="445"/>
      <point x="651" y="445" type="curve" smooth="yes"/>
      <point x="393" y="445" type="line"/>
      <point x="393" y="370" type="line"/>
      <point x="684" y="370" type="line" smooth="yes"/>
      <point x="738" y="370"/>
      <point x="748" y="356"/>
      <point x="748" y="338" type="curve" smooth="yes"/>
      <point x="748" y="304"/>
      <point x="695" y="273"/>
      <point x="588" y="251" type="curve"/>
      <point x="587" y="148"/>
      <point x="661" y="55"/>
    </contour>
    <contour>
      <point x="1160" y="545" type="line"/>
      <point x="1162" y="555" type="line"/>
      <point x="1131" y="620" type="line"/>
      <point x="34" y="620" type="line"/>
      <point x="32" y="610" type="line"/>
      <point x="63" y="545" type="line"/>
    </contour>
    <contour>
      <point x="931" y="-45" type="line"/>
      <point x="1052" y="591" type="line"/>
      <point x="968" y="591" type="line"/>
      <point x="853" y="17" type="line"/>
      <point x="921" y="-45" type="line"/>
    </contour>
  </outline>
</glyph>
<glyph name="headline200" format="2">
  <advance width="200"/>
  <outline>
    <contour>
      <point x="285" y="545" type="line"/>
      <point x="287" y="555" type="line"/>
      <point x="256" y="620" type="line"/>
      <point x="34" y="620" type="line"/>
      <point x="32" y="610" type="line"/>
      <point x="63" y="545" type="line"/>
    </contour>
  </outline>
</glyph>
<glyph name="headline50" format="2">
  <advance width="50"/>
  <outline>
    <contour>
      <point x="135" y="545" type="line"/>
      <point x="137" y="555" type="line"/>
      <point x="106" y="620" type="line"/>
      <point x="34" y="620" type="line"/>
      <point x="32" y="610" type="line"/>
      <point x="63" y="545" type="line"/>
    </contour>
  </outline>
</glyph>
